M48
;DRILL file {KiCad 4.0.7} date 06/07/18 15:13:18
;FORMAT={-:-/ absolute / inch / decimal}
FMAT,2
INCH,TZ
T1C0.012
T2C0.032
T3C0.039
T4C0.039
T5C0.039
T6C0.087
T7C0.307
%
G90
G05
M72
T1
X4.44Y-5.035
X4.465Y-4.965
X4.615Y-5.615
X4.895Y-4.97
X5.015Y-4.99
X5.465Y-4.99
X5.48Y-5.62
X5.555Y-5.01
X6.615Y-5.015
X6.68Y-4.99
X6.88Y-4.99
X6.96Y-4.965
X7.105Y-5.16
X7.11Y-4.975
T2
X4.4Y-3.45
X4.4Y-3.575
X4.4Y-3.7
X4.4Y-3.825
X4.4Y-3.95
X4.4Y-4.075
X4.4Y-4.2
X4.4Y-4.325
X4.4Y-4.45
X4.4Y-4.575
X4.4Y-4.7
X4.4Y-4.825
X4.4Y-4.95
X4.7Y-3.45
X4.7Y-3.575
X4.7Y-3.7
X4.7Y-3.825
X4.7Y-3.95
X4.7Y-4.075
X4.7Y-4.2
X4.7Y-4.325
X4.7Y-4.45
X4.7Y-4.575
X4.7Y-4.7
X4.7Y-4.825
X4.7Y-4.95
X4.8146Y-3.4854
X4.8146Y-3.6604
X4.8146Y-3.8354
X4.8146Y-4.0104
X4.8146Y-4.1854
X4.8146Y-4.3604
X4.8146Y-4.5354
X4.8146Y-4.7104
X4.8146Y-4.8854
X4.8854Y-3.4146
X4.8854Y-3.5896
X4.8854Y-3.7646
X4.8854Y-3.9396
X4.8854Y-4.1146
X4.8854Y-4.2896
X4.8854Y-4.4646
X4.8854Y-4.6396
X4.8854Y-4.8146
X4.9896Y-3.4854
X4.9896Y-3.6604
X4.9896Y-3.8354
X4.9896Y-4.0104
X4.9896Y-4.1854
X4.9896Y-4.3604
X4.9896Y-4.5354
X4.9896Y-4.7104
X4.9896Y-4.8854
X5.0604Y-3.4146
X5.0604Y-3.5896
X5.0604Y-3.7646
X5.0604Y-3.9396
X5.0604Y-4.1146
X5.0604Y-4.2896
X5.0604Y-4.4646
X5.0604Y-4.6396
X5.0604Y-4.8146
X5.1646Y-3.4854
X5.1646Y-3.6604
X5.1646Y-3.8354
X5.1646Y-4.0104
X5.1646Y-4.1854
X5.1646Y-4.3604
X5.1646Y-4.5354
X5.1646Y-4.7104
X5.1646Y-4.8854
X5.2354Y-3.4146
X5.2354Y-3.5896
X5.2354Y-3.7646
X5.2354Y-3.9396
X5.2354Y-4.1146
X5.2354Y-4.2896
X5.2354Y-4.4646
X5.2354Y-4.6396
X5.2354Y-4.8146
X5.3396Y-3.4854
X5.3396Y-3.6604
X5.3396Y-3.8354
X5.3396Y-4.0104
X5.3396Y-4.1854
X5.3396Y-4.3604
X5.3396Y-4.5354
X5.3396Y-4.7104
X5.3396Y-4.8854
X5.4104Y-3.4146
X5.4104Y-3.5896
X5.4104Y-3.7646
X5.4104Y-3.9396
X5.4104Y-4.1146
X5.4104Y-4.2896
X5.4104Y-4.4646
X5.4104Y-4.6396
X5.4104Y-4.8146
X5.5146Y-3.4854
X5.5146Y-3.6604
X5.5146Y-3.8354
X5.5146Y-4.0104
X5.5146Y-4.1854
X5.5146Y-4.3604
X5.5146Y-4.5354
X5.5146Y-4.7104
X5.5146Y-4.8854
X5.5854Y-3.4146
X5.5854Y-3.5896
X5.5854Y-3.7646
X5.5854Y-3.9396
X5.5854Y-4.1146
X5.5854Y-4.2896
X5.5854Y-4.4646
X5.5854Y-4.6396
X5.5854Y-4.8146
X5.6896Y-3.4854
X5.6896Y-3.6604
X5.6896Y-3.8354
X5.6896Y-4.0104
X5.6896Y-4.1854
X5.6896Y-4.3604
X5.6896Y-4.5354
X5.6896Y-4.7104
X5.6896Y-4.8854
X5.7604Y-3.4146
X5.7604Y-3.5896
X5.7604Y-3.7646
X5.7604Y-3.9396
X5.7604Y-4.1146
X5.7604Y-4.2896
X5.7604Y-4.4646
X5.7604Y-4.6396
X5.7604Y-4.8146
X5.8646Y-3.4854
X5.8646Y-3.6604
X5.8646Y-3.8354
X5.8646Y-4.0104
X5.8646Y-4.1854
X5.8646Y-4.3604
X5.8646Y-4.5354
X5.8646Y-4.7104
X5.8646Y-4.8854
X5.9354Y-3.4146
X5.9354Y-3.5896
X5.9354Y-3.7646
X5.9354Y-3.9396
X5.9354Y-4.1146
X5.9354Y-4.2896
X5.9354Y-4.4646
X5.9354Y-4.6396
X5.9354Y-4.8146
X6.0396Y-3.4854
X6.0396Y-3.6604
X6.0396Y-3.8354
X6.0396Y-4.0104
X6.0396Y-4.1854
X6.0396Y-4.3604
X6.0396Y-4.5354
X6.0396Y-4.7104
X6.0396Y-4.8854
X6.1104Y-3.4146
X6.1104Y-3.5896
X6.1104Y-3.7646
X6.1104Y-3.9396
X6.1104Y-4.1146
X6.1104Y-4.2896
X6.1104Y-4.4646
X6.1104Y-4.6396
X6.1104Y-4.8146
X6.2146Y-3.4854
X6.2146Y-3.6604
X6.2146Y-3.8354
X6.2146Y-4.0104
X6.2146Y-4.1854
X6.2146Y-4.3604
X6.2146Y-4.5354
X6.2146Y-4.7104
X6.2146Y-4.8854
X6.2854Y-3.4146
X6.2854Y-3.5896
X6.2854Y-3.7646
X6.2854Y-3.9396
X6.2854Y-4.1146
X6.2854Y-4.2896
X6.2854Y-4.4646
X6.2854Y-4.6396
X6.2854Y-4.8146
X6.3896Y-3.4854
X6.3896Y-3.6604
X6.3896Y-3.8354
X6.3896Y-4.0104
X6.3896Y-4.1854
X6.3896Y-4.3604
X6.3896Y-4.5354
X6.3896Y-4.7104
X6.3896Y-4.8854
X6.4604Y-3.4146
X6.4604Y-3.5896
X6.4604Y-3.7646
X6.4604Y-3.9396
X6.4604Y-4.1146
X6.4604Y-4.2896
X6.4604Y-4.4646
X6.4604Y-4.6396
X6.4604Y-4.8146
X6.5646Y-3.4854
X6.5646Y-3.6604
X6.5646Y-3.8354
X6.5646Y-4.0104
X6.5646Y-4.1854
X6.5646Y-4.3604
X6.5646Y-4.5354
X6.5646Y-4.7104
X6.5646Y-4.8854
X6.6354Y-3.4146
X6.6354Y-3.5896
X6.6354Y-3.7646
X6.6354Y-3.9396
X6.6354Y-4.1146
X6.6354Y-4.2896
X6.6354Y-4.4646
X6.6354Y-4.6396
X6.6354Y-4.8146
X6.7396Y-3.4854
X6.7396Y-3.6604
X6.7396Y-3.8354
X6.7396Y-4.0104
X6.7396Y-4.1854
X6.7396Y-4.3604
X6.7396Y-4.5354
X6.7396Y-4.7104
X6.7396Y-4.8854
X6.8104Y-3.4146
X6.8104Y-3.5896
X6.8104Y-3.7646
X6.8104Y-3.9396
X6.8104Y-4.1146
X6.8104Y-4.2896
X6.8104Y-4.4646
X6.8104Y-4.6396
X6.8104Y-4.8146
X6.9146Y-3.4854
X6.9146Y-3.6604
X6.9146Y-3.8354
X6.9146Y-4.0104
X6.9146Y-4.1854
X6.9146Y-4.3604
X6.9146Y-4.5354
X6.9146Y-4.7104
X6.9146Y-4.8854
X6.9854Y-3.4146
X6.9854Y-3.5896
X6.9854Y-3.7646
X6.9854Y-3.9396
X6.9854Y-4.1146
X6.9854Y-4.2896
X6.9854Y-4.4646
X6.9854Y-4.6396
X6.9854Y-4.8146
X7.0896Y-3.4854
X7.0896Y-3.6604
X7.0896Y-3.8354
X7.0896Y-4.0104
X7.0896Y-4.1854
X7.0896Y-4.3604
X7.0896Y-4.5354
X7.0896Y-4.7104
X7.0896Y-4.8854
X7.1604Y-3.4146
X7.1604Y-3.5896
X7.1604Y-3.7646
X7.1604Y-3.9396
X7.1604Y-4.1146
X7.1604Y-4.2896
X7.1604Y-4.4646
X7.1604Y-4.6396
X7.1604Y-4.8146
T3
X5.29Y-3.2
X5.39Y-3.2
X5.4901Y-3.2
X5.59Y-3.2
X5.69Y-3.2
X5.79Y-3.2
X5.89Y-3.2
X5.99Y-3.2
X6.09Y-3.2
X6.19Y-3.2
X6.35Y-3.2
X6.45Y-3.2
X6.55Y-3.2
X6.65Y-3.2
X6.75Y-3.2
X6.85Y-3.2
X6.95Y-3.2
X7.05Y-3.2
T4
X4.575Y-5.3
X4.675Y-5.175
X4.675Y-5.425
X4.775Y-5.3
T5
X4.9744Y-5.2016
X4.9744Y-5.3984
X5.5453Y-5.2016
X5.5453Y-5.3
X5.5453Y-5.3984
X5.65Y-5.1
X5.75Y-5.1
X5.85Y-5.1
X5.95Y-5.1
X6.05Y-5.1
X6.15Y-5.1
X6.25Y-5.1
X6.35Y-5.1
X6.55Y-5.1
X6.65Y-5.1
X6.75Y-5.1
X6.85Y-5.1
X6.95Y-5.1
X7.05Y-5.1
T6
X5.25Y-5.0559
X5.25Y-5.5441
T7
X5.25Y-5.3
T0
M30
