G04 #@! TF.FileFunction,Legend,Bot*
%FSLAX46Y46*%
G04 Gerber Fmt 4.6, Leading zero omitted, Abs format (unit mm)*
G04 Created by KiCad (PCBNEW 4.0.7) date 04/19/18 17:49:01*
%MOMM*%
%LPD*%
G01*
G04 APERTURE LIST*
%ADD10C,0.100000*%
%ADD11C,0.300000*%
%ADD12C,0.200000*%
%ADD13C,0.002540*%
G04 APERTURE END LIST*
D10*
D11*
X114973571Y-87853571D02*
X114973571Y-87139285D01*
X113473571Y-87139285D01*
X114973571Y-88567857D02*
X114902143Y-88424999D01*
X114830714Y-88353571D01*
X114687857Y-88282142D01*
X114259286Y-88282142D01*
X114116429Y-88353571D01*
X114045000Y-88424999D01*
X113973571Y-88567857D01*
X113973571Y-88782142D01*
X114045000Y-88924999D01*
X114116429Y-88996428D01*
X114259286Y-89067857D01*
X114687857Y-89067857D01*
X114830714Y-88996428D01*
X114902143Y-88924999D01*
X114973571Y-88782142D01*
X114973571Y-88567857D01*
X114973571Y-90425000D02*
X114973571Y-89710714D01*
X113473571Y-89710714D01*
X114902143Y-90853571D02*
X114973571Y-91067857D01*
X114973571Y-91425000D01*
X114902143Y-91567857D01*
X114830714Y-91639286D01*
X114687857Y-91710714D01*
X114545000Y-91710714D01*
X114402143Y-91639286D01*
X114330714Y-91567857D01*
X114259286Y-91425000D01*
X114187857Y-91139286D01*
X114116429Y-90996428D01*
X114045000Y-90925000D01*
X113902143Y-90853571D01*
X113759286Y-90853571D01*
X113616429Y-90925000D01*
X113545000Y-90996428D01*
X113473571Y-91139286D01*
X113473571Y-91496428D01*
X113545000Y-91710714D01*
X113973571Y-92353571D02*
X114973571Y-92353571D01*
X114116429Y-92353571D02*
X114045000Y-92424999D01*
X113973571Y-92567857D01*
X113973571Y-92782142D01*
X114045000Y-92924999D01*
X114187857Y-92996428D01*
X114973571Y-92996428D01*
X114973571Y-94353571D02*
X114187857Y-94353571D01*
X114045000Y-94282142D01*
X113973571Y-94139285D01*
X113973571Y-93853571D01*
X114045000Y-93710714D01*
X114902143Y-94353571D02*
X114973571Y-94210714D01*
X114973571Y-93853571D01*
X114902143Y-93710714D01*
X114759286Y-93639285D01*
X114616429Y-93639285D01*
X114473571Y-93710714D01*
X114402143Y-93853571D01*
X114402143Y-94210714D01*
X114330714Y-94353571D01*
X114973571Y-95067857D02*
X113473571Y-95067857D01*
X114402143Y-95210714D02*
X114973571Y-95639285D01*
X113973571Y-95639285D02*
X114545000Y-95067857D01*
X114902143Y-96853571D02*
X114973571Y-96710714D01*
X114973571Y-96425000D01*
X114902143Y-96282143D01*
X114759286Y-96210714D01*
X114187857Y-96210714D01*
X114045000Y-96282143D01*
X113973571Y-96425000D01*
X113973571Y-96710714D01*
X114045000Y-96853571D01*
X114187857Y-96925000D01*
X114330714Y-96925000D01*
X114473571Y-96210714D01*
X114902143Y-97496428D02*
X114973571Y-97639285D01*
X114973571Y-97925000D01*
X114902143Y-98067857D01*
X114759286Y-98139285D01*
X114687857Y-98139285D01*
X114545000Y-98067857D01*
X114473571Y-97925000D01*
X114473571Y-97710714D01*
X114402143Y-97567857D01*
X114259286Y-97496428D01*
X114187857Y-97496428D01*
X114045000Y-97567857D01*
X113973571Y-97710714D01*
X113973571Y-97925000D01*
X114045000Y-98067857D01*
X117523571Y-94425001D02*
X116809286Y-93925001D01*
X117523571Y-93567858D02*
X116023571Y-93567858D01*
X116023571Y-94139286D01*
X116095000Y-94282144D01*
X116166429Y-94353572D01*
X116309286Y-94425001D01*
X116523571Y-94425001D01*
X116666429Y-94353572D01*
X116737857Y-94282144D01*
X116809286Y-94139286D01*
X116809286Y-93567858D01*
X117452143Y-95639286D02*
X117523571Y-95496429D01*
X117523571Y-95210715D01*
X117452143Y-95067858D01*
X117309286Y-94996429D01*
X116737857Y-94996429D01*
X116595000Y-95067858D01*
X116523571Y-95210715D01*
X116523571Y-95496429D01*
X116595000Y-95639286D01*
X116737857Y-95710715D01*
X116880714Y-95710715D01*
X117023571Y-94996429D01*
X116523571Y-96210715D02*
X117523571Y-96567858D01*
X116523571Y-96925000D01*
X117095000Y-97425000D02*
X117095000Y-98139286D01*
X117523571Y-97282143D02*
X116023571Y-97782143D01*
X117523571Y-98282143D01*
X114973571Y-110212143D02*
X113473571Y-110212143D01*
X113473571Y-110569286D01*
X113545000Y-110783571D01*
X113687857Y-110926429D01*
X113830714Y-110997857D01*
X114116429Y-111069286D01*
X114330714Y-111069286D01*
X114616429Y-110997857D01*
X114759286Y-110926429D01*
X114902143Y-110783571D01*
X114973571Y-110569286D01*
X114973571Y-110212143D01*
X114973571Y-111712143D02*
X113973571Y-111712143D01*
X113473571Y-111712143D02*
X113545000Y-111640714D01*
X113616429Y-111712143D01*
X113545000Y-111783571D01*
X113473571Y-111712143D01*
X113616429Y-111712143D01*
X114973571Y-112426429D02*
X113973571Y-112426429D01*
X114259286Y-112426429D02*
X114116429Y-112497857D01*
X114045000Y-112569286D01*
X113973571Y-112712143D01*
X113973571Y-112855000D01*
X114973571Y-113355000D02*
X113473571Y-113355000D01*
X114402143Y-113497857D02*
X114973571Y-113926428D01*
X113973571Y-113926428D02*
X114545000Y-113355000D01*
X114973571Y-115712143D02*
X113473571Y-115712143D01*
X114187857Y-115712143D02*
X114187857Y-116569286D01*
X114973571Y-116569286D02*
X113473571Y-116569286D01*
X114902143Y-117855000D02*
X114973571Y-117712143D01*
X114973571Y-117426429D01*
X114902143Y-117283572D01*
X114759286Y-117212143D01*
X114187857Y-117212143D01*
X114045000Y-117283572D01*
X113973571Y-117426429D01*
X113973571Y-117712143D01*
X114045000Y-117855000D01*
X114187857Y-117926429D01*
X114330714Y-117926429D01*
X114473571Y-117212143D01*
X114973571Y-118569286D02*
X113973571Y-118569286D01*
X113473571Y-118569286D02*
X113545000Y-118497857D01*
X113616429Y-118569286D01*
X113545000Y-118640714D01*
X113473571Y-118569286D01*
X113616429Y-118569286D01*
X114902143Y-119212143D02*
X114973571Y-119355000D01*
X114973571Y-119640715D01*
X114902143Y-119783572D01*
X114759286Y-119855000D01*
X114687857Y-119855000D01*
X114545000Y-119783572D01*
X114473571Y-119640715D01*
X114473571Y-119426429D01*
X114402143Y-119283572D01*
X114259286Y-119212143D01*
X114187857Y-119212143D01*
X114045000Y-119283572D01*
X113973571Y-119426429D01*
X113973571Y-119640715D01*
X114045000Y-119783572D01*
X114902143Y-120426429D02*
X114973571Y-120569286D01*
X114973571Y-120855001D01*
X114902143Y-120997858D01*
X114759286Y-121069286D01*
X114687857Y-121069286D01*
X114545000Y-120997858D01*
X114473571Y-120855001D01*
X114473571Y-120640715D01*
X114402143Y-120497858D01*
X114259286Y-120426429D01*
X114187857Y-120426429D01*
X114045000Y-120497858D01*
X113973571Y-120640715D01*
X113973571Y-120855001D01*
X114045000Y-120997858D01*
X113973571Y-121569287D02*
X114973571Y-121855001D01*
X114259286Y-122140715D01*
X114973571Y-122426430D01*
X113973571Y-122712144D01*
X114973571Y-123497859D02*
X114902143Y-123355001D01*
X114830714Y-123283573D01*
X114687857Y-123212144D01*
X114259286Y-123212144D01*
X114116429Y-123283573D01*
X114045000Y-123355001D01*
X113973571Y-123497859D01*
X113973571Y-123712144D01*
X114045000Y-123855001D01*
X114116429Y-123926430D01*
X114259286Y-123997859D01*
X114687857Y-123997859D01*
X114830714Y-123926430D01*
X114902143Y-123855001D01*
X114973571Y-123712144D01*
X114973571Y-123497859D01*
X114973571Y-124855002D02*
X114902143Y-124712144D01*
X114759286Y-124640716D01*
X113473571Y-124640716D01*
X113973571Y-125212144D02*
X113973571Y-125783573D01*
X114973571Y-125426430D02*
X113687857Y-125426430D01*
X113545000Y-125497858D01*
X113473571Y-125640716D01*
X113473571Y-125783573D01*
X116166429Y-110140714D02*
X116095000Y-110212143D01*
X116023571Y-110355000D01*
X116023571Y-110712143D01*
X116095000Y-110855000D01*
X116166429Y-110926429D01*
X116309286Y-110997857D01*
X116452143Y-110997857D01*
X116666429Y-110926429D01*
X117523571Y-110069286D01*
X117523571Y-110997857D01*
X116023571Y-111926428D02*
X116023571Y-112069285D01*
X116095000Y-112212142D01*
X116166429Y-112283571D01*
X116309286Y-112355000D01*
X116595000Y-112426428D01*
X116952143Y-112426428D01*
X117237857Y-112355000D01*
X117380714Y-112283571D01*
X117452143Y-112212142D01*
X117523571Y-112069285D01*
X117523571Y-111926428D01*
X117452143Y-111783571D01*
X117380714Y-111712142D01*
X117237857Y-111640714D01*
X116952143Y-111569285D01*
X116595000Y-111569285D01*
X116309286Y-111640714D01*
X116166429Y-111712142D01*
X116095000Y-111783571D01*
X116023571Y-111926428D01*
X117523571Y-113854999D02*
X117523571Y-112997856D01*
X117523571Y-113426428D02*
X116023571Y-113426428D01*
X116237857Y-113283571D01*
X116380714Y-113140713D01*
X116452143Y-112997856D01*
X116666429Y-114712142D02*
X116595000Y-114569284D01*
X116523571Y-114497856D01*
X116380714Y-114426427D01*
X116309286Y-114426427D01*
X116166429Y-114497856D01*
X116095000Y-114569284D01*
X116023571Y-114712142D01*
X116023571Y-114997856D01*
X116095000Y-115140713D01*
X116166429Y-115212142D01*
X116309286Y-115283570D01*
X116380714Y-115283570D01*
X116523571Y-115212142D01*
X116595000Y-115140713D01*
X116666429Y-114997856D01*
X116666429Y-114712142D01*
X116737857Y-114569284D01*
X116809286Y-114497856D01*
X116952143Y-114426427D01*
X117237857Y-114426427D01*
X117380714Y-114497856D01*
X117452143Y-114569284D01*
X117523571Y-114712142D01*
X117523571Y-114997856D01*
X117452143Y-115140713D01*
X117380714Y-115212142D01*
X117237857Y-115283570D01*
X116952143Y-115283570D01*
X116809286Y-115212142D01*
X116737857Y-115140713D01*
X116666429Y-114997856D01*
D12*
X121541885Y-134620000D02*
G75*
G03X121541885Y-134620000I-2796885J0D01*
G01*
D13*
G36*
X117802660Y-109146340D02*
X117802660Y-109032040D01*
X116461540Y-109032040D01*
X114995960Y-109032040D01*
X113525300Y-109032040D01*
X113487200Y-108993940D01*
X113451640Y-108955840D01*
X113451640Y-104145080D01*
X113451640Y-99336860D01*
X113487200Y-99298760D01*
X113525300Y-99260660D01*
X114995960Y-99260660D01*
X116461540Y-99263200D01*
X116464080Y-99489260D01*
X116464080Y-99715320D01*
X116593620Y-99799140D01*
X116761260Y-99921060D01*
X116913660Y-100063300D01*
X117050820Y-100223320D01*
X117170200Y-100398580D01*
X117269260Y-100586540D01*
X117348000Y-100784660D01*
X117403880Y-100990400D01*
X117431820Y-101155500D01*
X117439440Y-101241860D01*
X117441980Y-101343460D01*
X117439440Y-101455220D01*
X117431820Y-101564440D01*
X117419120Y-101663500D01*
X117408960Y-101724460D01*
X117353080Y-101940360D01*
X117274340Y-102143560D01*
X117177820Y-102331520D01*
X117055900Y-102509320D01*
X116911120Y-102674420D01*
X116842540Y-102743000D01*
X116781580Y-102798880D01*
X116710460Y-102854760D01*
X116639340Y-102908100D01*
X116593620Y-102941120D01*
X116464080Y-103022400D01*
X116464080Y-106024680D01*
X116461540Y-109032040D01*
X117802660Y-109032040D01*
X117802660Y-109016800D01*
X117701060Y-109016800D01*
X117139720Y-109016800D01*
X116578380Y-109016800D01*
X116578380Y-106060240D01*
X116578380Y-103106220D01*
X116695220Y-103027480D01*
X116832380Y-102930960D01*
X116951760Y-102834440D01*
X117050820Y-102735380D01*
X117139720Y-102631240D01*
X117218460Y-102514400D01*
X117269260Y-102428040D01*
X117340380Y-102288340D01*
X117398800Y-102163880D01*
X117447060Y-102047040D01*
X117485160Y-101927660D01*
X117515640Y-101803200D01*
X117515640Y-101798120D01*
X117551200Y-101615240D01*
X117566440Y-101442520D01*
X117566440Y-101277420D01*
X117548660Y-101109780D01*
X117515640Y-100939600D01*
X117457220Y-100744020D01*
X117375940Y-100548440D01*
X117266720Y-100347780D01*
X117134640Y-100147120D01*
X117086380Y-100078540D01*
X117043200Y-100027740D01*
X116984780Y-99966780D01*
X116918740Y-99903280D01*
X116850160Y-99837240D01*
X116776500Y-99773740D01*
X116710460Y-99720400D01*
X116652040Y-99677220D01*
X116616480Y-99654360D01*
X116578380Y-99634040D01*
X116578380Y-99441000D01*
X116578380Y-99247960D01*
X117139720Y-99247960D01*
X117701060Y-99247960D01*
X117701060Y-104134920D01*
X117701060Y-109016800D01*
X117802660Y-109016800D01*
X117802660Y-104152700D01*
X117802660Y-99161600D01*
X117622320Y-99153980D01*
X117584220Y-99151440D01*
X117525800Y-99151440D01*
X117444520Y-99151440D01*
X117345460Y-99151440D01*
X117228620Y-99148900D01*
X117096540Y-99148900D01*
X116949220Y-99148900D01*
X116789200Y-99148900D01*
X116619020Y-99148900D01*
X116438680Y-99148900D01*
X116250720Y-99148900D01*
X116057680Y-99148900D01*
X115859560Y-99148900D01*
X115658900Y-99148900D01*
X115458240Y-99148900D01*
X115255040Y-99148900D01*
X115054380Y-99151440D01*
X114858800Y-99151440D01*
X114665760Y-99151440D01*
X114480340Y-99151440D01*
X114305080Y-99153980D01*
X114137440Y-99153980D01*
X113982500Y-99156520D01*
X113840260Y-99156520D01*
X113713260Y-99156520D01*
X113604040Y-99159060D01*
X113510060Y-99159060D01*
X113438940Y-99161600D01*
X113385600Y-99161600D01*
X113357660Y-99164140D01*
X113352580Y-99164140D01*
X113352580Y-99176840D01*
X113352580Y-99214940D01*
X113350040Y-99275900D01*
X113350040Y-99359720D01*
X113350040Y-99463860D01*
X113350040Y-99590860D01*
X113347500Y-99733100D01*
X113347500Y-99895660D01*
X113347500Y-100076000D01*
X113347500Y-100271580D01*
X113344960Y-100482400D01*
X113344960Y-100705920D01*
X113344960Y-100944680D01*
X113344960Y-101193600D01*
X113344960Y-101452680D01*
X113342420Y-101721920D01*
X113342420Y-101998780D01*
X113342420Y-102285800D01*
X113342420Y-102575360D01*
X113342420Y-102872540D01*
X113342420Y-103174800D01*
X113339880Y-103479600D01*
X113339880Y-103786940D01*
X113339880Y-104096820D01*
X113339880Y-104401620D01*
X113339880Y-104708960D01*
X113339880Y-105013760D01*
X113339880Y-105316020D01*
X113339880Y-105615740D01*
X113339880Y-105907840D01*
X113339880Y-106194860D01*
X113339880Y-106474260D01*
X113339880Y-106746040D01*
X113339880Y-107007660D01*
X113339880Y-107259120D01*
X113339880Y-107497880D01*
X113339880Y-107723940D01*
X113339880Y-107937300D01*
X113339880Y-108135420D01*
X113339880Y-108318300D01*
X113339880Y-108485940D01*
X113342420Y-108633260D01*
X113342420Y-108762800D01*
X113342420Y-108869480D01*
X113342420Y-108958380D01*
X113344960Y-109024420D01*
X113344960Y-109067600D01*
X113344960Y-109085380D01*
X113352580Y-109146340D01*
X115577620Y-109146340D01*
X117802660Y-109146340D01*
X117802660Y-109146340D01*
X117802660Y-109146340D01*
G37*
X117802660Y-109146340D02*
X117802660Y-109032040D01*
X116461540Y-109032040D01*
X114995960Y-109032040D01*
X113525300Y-109032040D01*
X113487200Y-108993940D01*
X113451640Y-108955840D01*
X113451640Y-104145080D01*
X113451640Y-99336860D01*
X113487200Y-99298760D01*
X113525300Y-99260660D01*
X114995960Y-99260660D01*
X116461540Y-99263200D01*
X116464080Y-99489260D01*
X116464080Y-99715320D01*
X116593620Y-99799140D01*
X116761260Y-99921060D01*
X116913660Y-100063300D01*
X117050820Y-100223320D01*
X117170200Y-100398580D01*
X117269260Y-100586540D01*
X117348000Y-100784660D01*
X117403880Y-100990400D01*
X117431820Y-101155500D01*
X117439440Y-101241860D01*
X117441980Y-101343460D01*
X117439440Y-101455220D01*
X117431820Y-101564440D01*
X117419120Y-101663500D01*
X117408960Y-101724460D01*
X117353080Y-101940360D01*
X117274340Y-102143560D01*
X117177820Y-102331520D01*
X117055900Y-102509320D01*
X116911120Y-102674420D01*
X116842540Y-102743000D01*
X116781580Y-102798880D01*
X116710460Y-102854760D01*
X116639340Y-102908100D01*
X116593620Y-102941120D01*
X116464080Y-103022400D01*
X116464080Y-106024680D01*
X116461540Y-109032040D01*
X117802660Y-109032040D01*
X117802660Y-109016800D01*
X117701060Y-109016800D01*
X117139720Y-109016800D01*
X116578380Y-109016800D01*
X116578380Y-106060240D01*
X116578380Y-103106220D01*
X116695220Y-103027480D01*
X116832380Y-102930960D01*
X116951760Y-102834440D01*
X117050820Y-102735380D01*
X117139720Y-102631240D01*
X117218460Y-102514400D01*
X117269260Y-102428040D01*
X117340380Y-102288340D01*
X117398800Y-102163880D01*
X117447060Y-102047040D01*
X117485160Y-101927660D01*
X117515640Y-101803200D01*
X117515640Y-101798120D01*
X117551200Y-101615240D01*
X117566440Y-101442520D01*
X117566440Y-101277420D01*
X117548660Y-101109780D01*
X117515640Y-100939600D01*
X117457220Y-100744020D01*
X117375940Y-100548440D01*
X117266720Y-100347780D01*
X117134640Y-100147120D01*
X117086380Y-100078540D01*
X117043200Y-100027740D01*
X116984780Y-99966780D01*
X116918740Y-99903280D01*
X116850160Y-99837240D01*
X116776500Y-99773740D01*
X116710460Y-99720400D01*
X116652040Y-99677220D01*
X116616480Y-99654360D01*
X116578380Y-99634040D01*
X116578380Y-99441000D01*
X116578380Y-99247960D01*
X117139720Y-99247960D01*
X117701060Y-99247960D01*
X117701060Y-104134920D01*
X117701060Y-109016800D01*
X117802660Y-109016800D01*
X117802660Y-104152700D01*
X117802660Y-99161600D01*
X117622320Y-99153980D01*
X117584220Y-99151440D01*
X117525800Y-99151440D01*
X117444520Y-99151440D01*
X117345460Y-99151440D01*
X117228620Y-99148900D01*
X117096540Y-99148900D01*
X116949220Y-99148900D01*
X116789200Y-99148900D01*
X116619020Y-99148900D01*
X116438680Y-99148900D01*
X116250720Y-99148900D01*
X116057680Y-99148900D01*
X115859560Y-99148900D01*
X115658900Y-99148900D01*
X115458240Y-99148900D01*
X115255040Y-99148900D01*
X115054380Y-99151440D01*
X114858800Y-99151440D01*
X114665760Y-99151440D01*
X114480340Y-99151440D01*
X114305080Y-99153980D01*
X114137440Y-99153980D01*
X113982500Y-99156520D01*
X113840260Y-99156520D01*
X113713260Y-99156520D01*
X113604040Y-99159060D01*
X113510060Y-99159060D01*
X113438940Y-99161600D01*
X113385600Y-99161600D01*
X113357660Y-99164140D01*
X113352580Y-99164140D01*
X113352580Y-99176840D01*
X113352580Y-99214940D01*
X113350040Y-99275900D01*
X113350040Y-99359720D01*
X113350040Y-99463860D01*
X113350040Y-99590860D01*
X113347500Y-99733100D01*
X113347500Y-99895660D01*
X113347500Y-100076000D01*
X113347500Y-100271580D01*
X113344960Y-100482400D01*
X113344960Y-100705920D01*
X113344960Y-100944680D01*
X113344960Y-101193600D01*
X113344960Y-101452680D01*
X113342420Y-101721920D01*
X113342420Y-101998780D01*
X113342420Y-102285800D01*
X113342420Y-102575360D01*
X113342420Y-102872540D01*
X113342420Y-103174800D01*
X113339880Y-103479600D01*
X113339880Y-103786940D01*
X113339880Y-104096820D01*
X113339880Y-104401620D01*
X113339880Y-104708960D01*
X113339880Y-105013760D01*
X113339880Y-105316020D01*
X113339880Y-105615740D01*
X113339880Y-105907840D01*
X113339880Y-106194860D01*
X113339880Y-106474260D01*
X113339880Y-106746040D01*
X113339880Y-107007660D01*
X113339880Y-107259120D01*
X113339880Y-107497880D01*
X113339880Y-107723940D01*
X113339880Y-107937300D01*
X113339880Y-108135420D01*
X113339880Y-108318300D01*
X113339880Y-108485940D01*
X113342420Y-108633260D01*
X113342420Y-108762800D01*
X113342420Y-108869480D01*
X113342420Y-108958380D01*
X113344960Y-109024420D01*
X113344960Y-109067600D01*
X113344960Y-109085380D01*
X113352580Y-109146340D01*
X115577620Y-109146340D01*
X117802660Y-109146340D01*
X117802660Y-109146340D01*
G36*
X117345460Y-107279440D02*
X117393720Y-107266740D01*
X117439440Y-107238800D01*
X117452140Y-107228640D01*
X117492780Y-107177840D01*
X117523260Y-107109260D01*
X117538500Y-107030520D01*
X117541040Y-106951780D01*
X117538500Y-106941620D01*
X117518180Y-106852720D01*
X117480080Y-106781600D01*
X117429280Y-106728260D01*
X117363240Y-106695240D01*
X117355620Y-106692700D01*
X117317520Y-106685080D01*
X117294660Y-106692700D01*
X117281960Y-106715560D01*
X117281960Y-106758740D01*
X117281960Y-106768900D01*
X117287040Y-106809540D01*
X117294660Y-106832400D01*
X117309900Y-106842560D01*
X117330220Y-106850180D01*
X117375940Y-106878120D01*
X117403880Y-106921300D01*
X117419120Y-106974640D01*
X117414040Y-107035600D01*
X117401340Y-107071160D01*
X117378480Y-107109260D01*
X117350540Y-107124500D01*
X117314980Y-107121960D01*
X117297200Y-107114340D01*
X117279420Y-107096560D01*
X117264180Y-107063540D01*
X117243860Y-107015280D01*
X117223540Y-106946700D01*
X117210840Y-106908600D01*
X117190520Y-106850180D01*
X117172740Y-106807000D01*
X117152420Y-106776520D01*
X117134640Y-106758740D01*
X117076220Y-106723180D01*
X117020340Y-106710480D01*
X116961920Y-106715560D01*
X116911120Y-106740960D01*
X116865400Y-106784140D01*
X116829840Y-106837480D01*
X116806980Y-106903520D01*
X116799360Y-106977180D01*
X116806980Y-107048300D01*
X116829840Y-107132120D01*
X116867940Y-107193080D01*
X116918740Y-107231180D01*
X116982240Y-107251500D01*
X116984780Y-107251500D01*
X117038120Y-107259120D01*
X117038120Y-107185460D01*
X117035580Y-107144820D01*
X117030500Y-107121960D01*
X117020340Y-107109260D01*
X116997480Y-107099100D01*
X116959380Y-107073700D01*
X116933980Y-107033060D01*
X116923820Y-106984800D01*
X116928900Y-106936540D01*
X116951760Y-106893360D01*
X116954300Y-106890820D01*
X116982240Y-106865420D01*
X117002560Y-106862880D01*
X117027960Y-106875580D01*
X117035580Y-106880660D01*
X117053360Y-106908600D01*
X117076220Y-106961940D01*
X117099080Y-107038140D01*
X117099080Y-107043220D01*
X117127020Y-107129580D01*
X117154960Y-107190540D01*
X117185440Y-107233720D01*
X117226080Y-107261660D01*
X117274340Y-107276900D01*
X117284500Y-107276900D01*
X117345460Y-107279440D01*
X117345460Y-107279440D01*
X117345460Y-107279440D01*
G37*
X117345460Y-107279440D02*
X117393720Y-107266740D01*
X117439440Y-107238800D01*
X117452140Y-107228640D01*
X117492780Y-107177840D01*
X117523260Y-107109260D01*
X117538500Y-107030520D01*
X117541040Y-106951780D01*
X117538500Y-106941620D01*
X117518180Y-106852720D01*
X117480080Y-106781600D01*
X117429280Y-106728260D01*
X117363240Y-106695240D01*
X117355620Y-106692700D01*
X117317520Y-106685080D01*
X117294660Y-106692700D01*
X117281960Y-106715560D01*
X117281960Y-106758740D01*
X117281960Y-106768900D01*
X117287040Y-106809540D01*
X117294660Y-106832400D01*
X117309900Y-106842560D01*
X117330220Y-106850180D01*
X117375940Y-106878120D01*
X117403880Y-106921300D01*
X117419120Y-106974640D01*
X117414040Y-107035600D01*
X117401340Y-107071160D01*
X117378480Y-107109260D01*
X117350540Y-107124500D01*
X117314980Y-107121960D01*
X117297200Y-107114340D01*
X117279420Y-107096560D01*
X117264180Y-107063540D01*
X117243860Y-107015280D01*
X117223540Y-106946700D01*
X117210840Y-106908600D01*
X117190520Y-106850180D01*
X117172740Y-106807000D01*
X117152420Y-106776520D01*
X117134640Y-106758740D01*
X117076220Y-106723180D01*
X117020340Y-106710480D01*
X116961920Y-106715560D01*
X116911120Y-106740960D01*
X116865400Y-106784140D01*
X116829840Y-106837480D01*
X116806980Y-106903520D01*
X116799360Y-106977180D01*
X116806980Y-107048300D01*
X116829840Y-107132120D01*
X116867940Y-107193080D01*
X116918740Y-107231180D01*
X116982240Y-107251500D01*
X116984780Y-107251500D01*
X117038120Y-107259120D01*
X117038120Y-107185460D01*
X117035580Y-107144820D01*
X117030500Y-107121960D01*
X117020340Y-107109260D01*
X116997480Y-107099100D01*
X116959380Y-107073700D01*
X116933980Y-107033060D01*
X116923820Y-106984800D01*
X116928900Y-106936540D01*
X116951760Y-106893360D01*
X116954300Y-106890820D01*
X116982240Y-106865420D01*
X117002560Y-106862880D01*
X117027960Y-106875580D01*
X117035580Y-106880660D01*
X117053360Y-106908600D01*
X117076220Y-106961940D01*
X117099080Y-107038140D01*
X117099080Y-107043220D01*
X117127020Y-107129580D01*
X117154960Y-107190540D01*
X117185440Y-107233720D01*
X117226080Y-107261660D01*
X117274340Y-107276900D01*
X117284500Y-107276900D01*
X117345460Y-107279440D01*
X117345460Y-107279440D01*
G36*
X117345460Y-104556560D02*
X117411500Y-104536240D01*
X117464840Y-104495600D01*
X117497860Y-104439720D01*
X117508020Y-104416860D01*
X117513100Y-104394000D01*
X117304820Y-104394000D01*
X117266720Y-104388920D01*
X117241320Y-104373680D01*
X117238780Y-104368600D01*
X117012720Y-104368600D01*
X116977160Y-104355900D01*
X116967000Y-104348280D01*
X116956840Y-104327960D01*
X116951760Y-104294940D01*
X116949220Y-104239060D01*
X116949220Y-104228900D01*
X116949220Y-104132380D01*
X116989860Y-104127300D01*
X117030500Y-104124760D01*
X117066060Y-104124760D01*
X117083840Y-104129840D01*
X117094000Y-104137460D01*
X117099080Y-104152700D01*
X117101620Y-104188260D01*
X117101620Y-104218740D01*
X117099080Y-104284780D01*
X117088920Y-104327960D01*
X117081300Y-104340660D01*
X117050820Y-104363520D01*
X117012720Y-104368600D01*
X117238780Y-104368600D01*
X117226080Y-104343200D01*
X117218460Y-104292400D01*
X117215920Y-104231440D01*
X117215920Y-104129840D01*
X117304820Y-104129840D01*
X117396260Y-104129840D01*
X117396260Y-104236520D01*
X117393720Y-104297480D01*
X117388640Y-104335580D01*
X117381020Y-104360980D01*
X117373400Y-104371140D01*
X117340380Y-104388920D01*
X117304820Y-104394000D01*
X117513100Y-104394000D01*
X117513100Y-104388920D01*
X117518180Y-104353360D01*
X117520720Y-104302560D01*
X117523260Y-104236520D01*
X117523260Y-104173020D01*
X117523260Y-103962200D01*
X117172740Y-103962200D01*
X116819680Y-103962200D01*
X116819680Y-104170480D01*
X116822220Y-104264460D01*
X116824760Y-104333040D01*
X116829840Y-104386380D01*
X116840000Y-104424480D01*
X116852700Y-104454960D01*
X116873020Y-104477820D01*
X116880640Y-104487980D01*
X116916200Y-104505760D01*
X116967000Y-104518460D01*
X117017800Y-104521000D01*
X117043200Y-104515920D01*
X117076220Y-104500680D01*
X117109240Y-104475280D01*
X117111780Y-104472740D01*
X117132100Y-104452420D01*
X117144800Y-104449880D01*
X117149880Y-104457500D01*
X117172740Y-104493060D01*
X117210840Y-104526080D01*
X117254020Y-104548940D01*
X117271800Y-104554020D01*
X117345460Y-104556560D01*
X117345460Y-104556560D01*
X117345460Y-104556560D01*
G37*
X117345460Y-104556560D02*
X117411500Y-104536240D01*
X117464840Y-104495600D01*
X117497860Y-104439720D01*
X117508020Y-104416860D01*
X117513100Y-104394000D01*
X117304820Y-104394000D01*
X117266720Y-104388920D01*
X117241320Y-104373680D01*
X117238780Y-104368600D01*
X117012720Y-104368600D01*
X116977160Y-104355900D01*
X116967000Y-104348280D01*
X116956840Y-104327960D01*
X116951760Y-104294940D01*
X116949220Y-104239060D01*
X116949220Y-104228900D01*
X116949220Y-104132380D01*
X116989860Y-104127300D01*
X117030500Y-104124760D01*
X117066060Y-104124760D01*
X117083840Y-104129840D01*
X117094000Y-104137460D01*
X117099080Y-104152700D01*
X117101620Y-104188260D01*
X117101620Y-104218740D01*
X117099080Y-104284780D01*
X117088920Y-104327960D01*
X117081300Y-104340660D01*
X117050820Y-104363520D01*
X117012720Y-104368600D01*
X117238780Y-104368600D01*
X117226080Y-104343200D01*
X117218460Y-104292400D01*
X117215920Y-104231440D01*
X117215920Y-104129840D01*
X117304820Y-104129840D01*
X117396260Y-104129840D01*
X117396260Y-104236520D01*
X117393720Y-104297480D01*
X117388640Y-104335580D01*
X117381020Y-104360980D01*
X117373400Y-104371140D01*
X117340380Y-104388920D01*
X117304820Y-104394000D01*
X117513100Y-104394000D01*
X117513100Y-104388920D01*
X117518180Y-104353360D01*
X117520720Y-104302560D01*
X117523260Y-104236520D01*
X117523260Y-104173020D01*
X117523260Y-103962200D01*
X117172740Y-103962200D01*
X116819680Y-103962200D01*
X116819680Y-104170480D01*
X116822220Y-104264460D01*
X116824760Y-104333040D01*
X116829840Y-104386380D01*
X116840000Y-104424480D01*
X116852700Y-104454960D01*
X116873020Y-104477820D01*
X116880640Y-104487980D01*
X116916200Y-104505760D01*
X116967000Y-104518460D01*
X117017800Y-104521000D01*
X117043200Y-104515920D01*
X117076220Y-104500680D01*
X117109240Y-104475280D01*
X117111780Y-104472740D01*
X117132100Y-104452420D01*
X117144800Y-104449880D01*
X117149880Y-104457500D01*
X117172740Y-104493060D01*
X117210840Y-104526080D01*
X117254020Y-104548940D01*
X117271800Y-104554020D01*
X117345460Y-104556560D01*
X117345460Y-104556560D01*
G36*
X116819680Y-105262680D02*
X117043200Y-105128060D01*
X117266720Y-104993440D01*
X117393720Y-104993440D01*
X117523260Y-104993440D01*
X117523260Y-104917240D01*
X117523260Y-104841040D01*
X117388640Y-104841040D01*
X117251480Y-104841040D01*
X117045740Y-104716580D01*
X116979700Y-104678480D01*
X116921280Y-104645460D01*
X116875560Y-104617520D01*
X116845080Y-104597200D01*
X116829840Y-104589580D01*
X116824760Y-104599740D01*
X116822220Y-104627680D01*
X116819680Y-104668320D01*
X116819680Y-104673400D01*
X116819680Y-104762300D01*
X116956840Y-104841040D01*
X117017800Y-104879140D01*
X117055900Y-104904540D01*
X117076220Y-104922320D01*
X117073680Y-104932480D01*
X117055900Y-104942640D01*
X117022880Y-104962960D01*
X116977160Y-104988360D01*
X116941600Y-105011220D01*
X116827300Y-105077260D01*
X116822220Y-105168700D01*
X116819680Y-105262680D01*
X116819680Y-105262680D01*
X116819680Y-105262680D01*
G37*
X116819680Y-105262680D02*
X117043200Y-105128060D01*
X117266720Y-104993440D01*
X117393720Y-104993440D01*
X117523260Y-104993440D01*
X117523260Y-104917240D01*
X117523260Y-104841040D01*
X117388640Y-104841040D01*
X117251480Y-104841040D01*
X117045740Y-104716580D01*
X116979700Y-104678480D01*
X116921280Y-104645460D01*
X116875560Y-104617520D01*
X116845080Y-104597200D01*
X116829840Y-104589580D01*
X116824760Y-104599740D01*
X116822220Y-104627680D01*
X116819680Y-104668320D01*
X116819680Y-104673400D01*
X116819680Y-104762300D01*
X116956840Y-104841040D01*
X117017800Y-104879140D01*
X117055900Y-104904540D01*
X117076220Y-104922320D01*
X117073680Y-104932480D01*
X117055900Y-104942640D01*
X117022880Y-104962960D01*
X116977160Y-104988360D01*
X116941600Y-105011220D01*
X116827300Y-105077260D01*
X116822220Y-105168700D01*
X116819680Y-105262680D01*
X116819680Y-105262680D01*
G36*
X117513100Y-107983020D02*
X117518180Y-107972860D01*
X117520720Y-107939840D01*
X117523260Y-107901740D01*
X117523260Y-107820460D01*
X117447060Y-107797600D01*
X117370860Y-107774740D01*
X117370860Y-107726480D01*
X117241320Y-107726480D01*
X117127020Y-107685840D01*
X117078760Y-107670600D01*
X117040660Y-107652820D01*
X117022880Y-107642660D01*
X117020340Y-107640120D01*
X117035580Y-107629960D01*
X117068600Y-107617260D01*
X117111780Y-107602020D01*
X117157500Y-107586780D01*
X117198140Y-107571540D01*
X117226080Y-107563920D01*
X117233700Y-107561380D01*
X117238780Y-107574080D01*
X117241320Y-107604560D01*
X117241320Y-107642660D01*
X117241320Y-107726480D01*
X117370860Y-107726480D01*
X117370860Y-107642660D01*
X117370860Y-107513120D01*
X117447060Y-107485180D01*
X117523260Y-107457240D01*
X117523260Y-107375960D01*
X117523260Y-107297220D01*
X117175280Y-107429300D01*
X116827300Y-107558840D01*
X116827300Y-107645200D01*
X116827300Y-107729020D01*
X117165120Y-107856020D01*
X117254020Y-107889040D01*
X117332760Y-107919520D01*
X117401340Y-107944920D01*
X117457220Y-107962700D01*
X117495320Y-107977940D01*
X117513100Y-107983020D01*
X117513100Y-107983020D01*
X117513100Y-107983020D01*
X117513100Y-107983020D01*
G37*
X117513100Y-107983020D02*
X117518180Y-107972860D01*
X117520720Y-107939840D01*
X117523260Y-107901740D01*
X117523260Y-107820460D01*
X117447060Y-107797600D01*
X117370860Y-107774740D01*
X117370860Y-107726480D01*
X117241320Y-107726480D01*
X117127020Y-107685840D01*
X117078760Y-107670600D01*
X117040660Y-107652820D01*
X117022880Y-107642660D01*
X117020340Y-107640120D01*
X117035580Y-107629960D01*
X117068600Y-107617260D01*
X117111780Y-107602020D01*
X117157500Y-107586780D01*
X117198140Y-107571540D01*
X117226080Y-107563920D01*
X117233700Y-107561380D01*
X117238780Y-107574080D01*
X117241320Y-107604560D01*
X117241320Y-107642660D01*
X117241320Y-107726480D01*
X117370860Y-107726480D01*
X117370860Y-107642660D01*
X117370860Y-107513120D01*
X117447060Y-107485180D01*
X117523260Y-107457240D01*
X117523260Y-107375960D01*
X117523260Y-107297220D01*
X117175280Y-107429300D01*
X116827300Y-107558840D01*
X116827300Y-107645200D01*
X116827300Y-107729020D01*
X117165120Y-107856020D01*
X117254020Y-107889040D01*
X117332760Y-107919520D01*
X117401340Y-107944920D01*
X117457220Y-107962700D01*
X117495320Y-107977940D01*
X117513100Y-107983020D01*
X117513100Y-107983020D01*
X117513100Y-107983020D01*
G36*
X115394740Y-103027480D02*
X115486180Y-103027480D01*
X115608100Y-103022400D01*
X115714780Y-103012240D01*
X115808760Y-102994460D01*
X115900200Y-102971600D01*
X115994180Y-102941120D01*
X116060220Y-102915720D01*
X116225320Y-102836980D01*
X116382800Y-102735380D01*
X116385340Y-102732840D01*
X115394740Y-102732840D01*
X115216940Y-102720140D01*
X115044220Y-102682040D01*
X114876580Y-102623620D01*
X114719100Y-102544880D01*
X114574320Y-102443280D01*
X114439700Y-102323900D01*
X114320320Y-102184200D01*
X114218720Y-102026720D01*
X114213640Y-102019100D01*
X114142520Y-101866700D01*
X114091720Y-101701600D01*
X114063780Y-101531420D01*
X114053620Y-101356160D01*
X114066320Y-101183440D01*
X114099340Y-101013260D01*
X114155220Y-100850700D01*
X114203480Y-100746560D01*
X114294920Y-100601780D01*
X114406680Y-100467160D01*
X114533680Y-100342700D01*
X114673380Y-100236020D01*
X114823240Y-100149660D01*
X114978180Y-100081080D01*
X115067080Y-100055680D01*
X115252500Y-100017580D01*
X115432840Y-100007420D01*
X115610640Y-100020120D01*
X115783360Y-100060760D01*
X115951000Y-100121720D01*
X116111020Y-100208080D01*
X116260880Y-100314760D01*
X116398040Y-100444300D01*
X116519960Y-100589080D01*
X116619020Y-100744020D01*
X116692680Y-100904040D01*
X116743480Y-101074220D01*
X116768880Y-101252020D01*
X116771420Y-101437440D01*
X116753640Y-101605080D01*
X116718080Y-101762560D01*
X116659660Y-101914960D01*
X116580920Y-102064820D01*
X116484400Y-102204520D01*
X116375180Y-102331520D01*
X116250720Y-102445820D01*
X116118640Y-102542340D01*
X115978940Y-102616000D01*
X115935760Y-102633780D01*
X115755420Y-102692200D01*
X115572540Y-102725220D01*
X115394740Y-102732840D01*
X116385340Y-102732840D01*
X116527580Y-102616000D01*
X116659660Y-102481380D01*
X116776500Y-102331520D01*
X116878100Y-102171500D01*
X116959380Y-102003860D01*
X117020340Y-101828600D01*
X117058440Y-101653340D01*
X117068600Y-101566980D01*
X117076220Y-101485700D01*
X117078760Y-101422200D01*
X117081300Y-101368860D01*
X117081300Y-101318060D01*
X117078760Y-101267260D01*
X117076220Y-101221540D01*
X117048280Y-101025960D01*
X117000020Y-100840540D01*
X116926360Y-100665280D01*
X116832380Y-100495100D01*
X116713000Y-100335080D01*
X116568220Y-100177600D01*
X116563140Y-100175060D01*
X116408200Y-100037900D01*
X116248180Y-99926140D01*
X116080540Y-99839780D01*
X115905280Y-99773740D01*
X115717320Y-99733100D01*
X115521740Y-99712780D01*
X115417600Y-99707700D01*
X115234720Y-99717860D01*
X115064540Y-99740720D01*
X114904520Y-99781360D01*
X114747040Y-99842320D01*
X114650520Y-99890580D01*
X114475260Y-99994720D01*
X114317780Y-100116640D01*
X114175540Y-100256340D01*
X114051080Y-100411280D01*
X113946940Y-100576380D01*
X113860580Y-100754180D01*
X113799620Y-100939600D01*
X113774220Y-101056440D01*
X113761520Y-101140260D01*
X113756440Y-101241860D01*
X113753900Y-101353620D01*
X113753900Y-101465380D01*
X113761520Y-101569520D01*
X113771680Y-101660960D01*
X113774220Y-101681280D01*
X113822480Y-101874320D01*
X113891060Y-102059740D01*
X113982500Y-102235000D01*
X114094260Y-102395020D01*
X114223800Y-102542340D01*
X114368580Y-102674420D01*
X114528600Y-102788720D01*
X114701320Y-102882700D01*
X114886740Y-102956360D01*
X114932460Y-102971600D01*
X115021360Y-102994460D01*
X115105180Y-103009700D01*
X115191540Y-103022400D01*
X115285520Y-103027480D01*
X115394740Y-103027480D01*
X115394740Y-103027480D01*
X115394740Y-103027480D01*
G37*
X115394740Y-103027480D02*
X115486180Y-103027480D01*
X115608100Y-103022400D01*
X115714780Y-103012240D01*
X115808760Y-102994460D01*
X115900200Y-102971600D01*
X115994180Y-102941120D01*
X116060220Y-102915720D01*
X116225320Y-102836980D01*
X116382800Y-102735380D01*
X116385340Y-102732840D01*
X115394740Y-102732840D01*
X115216940Y-102720140D01*
X115044220Y-102682040D01*
X114876580Y-102623620D01*
X114719100Y-102544880D01*
X114574320Y-102443280D01*
X114439700Y-102323900D01*
X114320320Y-102184200D01*
X114218720Y-102026720D01*
X114213640Y-102019100D01*
X114142520Y-101866700D01*
X114091720Y-101701600D01*
X114063780Y-101531420D01*
X114053620Y-101356160D01*
X114066320Y-101183440D01*
X114099340Y-101013260D01*
X114155220Y-100850700D01*
X114203480Y-100746560D01*
X114294920Y-100601780D01*
X114406680Y-100467160D01*
X114533680Y-100342700D01*
X114673380Y-100236020D01*
X114823240Y-100149660D01*
X114978180Y-100081080D01*
X115067080Y-100055680D01*
X115252500Y-100017580D01*
X115432840Y-100007420D01*
X115610640Y-100020120D01*
X115783360Y-100060760D01*
X115951000Y-100121720D01*
X116111020Y-100208080D01*
X116260880Y-100314760D01*
X116398040Y-100444300D01*
X116519960Y-100589080D01*
X116619020Y-100744020D01*
X116692680Y-100904040D01*
X116743480Y-101074220D01*
X116768880Y-101252020D01*
X116771420Y-101437440D01*
X116753640Y-101605080D01*
X116718080Y-101762560D01*
X116659660Y-101914960D01*
X116580920Y-102064820D01*
X116484400Y-102204520D01*
X116375180Y-102331520D01*
X116250720Y-102445820D01*
X116118640Y-102542340D01*
X115978940Y-102616000D01*
X115935760Y-102633780D01*
X115755420Y-102692200D01*
X115572540Y-102725220D01*
X115394740Y-102732840D01*
X116385340Y-102732840D01*
X116527580Y-102616000D01*
X116659660Y-102481380D01*
X116776500Y-102331520D01*
X116878100Y-102171500D01*
X116959380Y-102003860D01*
X117020340Y-101828600D01*
X117058440Y-101653340D01*
X117068600Y-101566980D01*
X117076220Y-101485700D01*
X117078760Y-101422200D01*
X117081300Y-101368860D01*
X117081300Y-101318060D01*
X117078760Y-101267260D01*
X117076220Y-101221540D01*
X117048280Y-101025960D01*
X117000020Y-100840540D01*
X116926360Y-100665280D01*
X116832380Y-100495100D01*
X116713000Y-100335080D01*
X116568220Y-100177600D01*
X116563140Y-100175060D01*
X116408200Y-100037900D01*
X116248180Y-99926140D01*
X116080540Y-99839780D01*
X115905280Y-99773740D01*
X115717320Y-99733100D01*
X115521740Y-99712780D01*
X115417600Y-99707700D01*
X115234720Y-99717860D01*
X115064540Y-99740720D01*
X114904520Y-99781360D01*
X114747040Y-99842320D01*
X114650520Y-99890580D01*
X114475260Y-99994720D01*
X114317780Y-100116640D01*
X114175540Y-100256340D01*
X114051080Y-100411280D01*
X113946940Y-100576380D01*
X113860580Y-100754180D01*
X113799620Y-100939600D01*
X113774220Y-101056440D01*
X113761520Y-101140260D01*
X113756440Y-101241860D01*
X113753900Y-101353620D01*
X113753900Y-101465380D01*
X113761520Y-101569520D01*
X113771680Y-101660960D01*
X113774220Y-101681280D01*
X113822480Y-101874320D01*
X113891060Y-102059740D01*
X113982500Y-102235000D01*
X114094260Y-102395020D01*
X114223800Y-102542340D01*
X114368580Y-102674420D01*
X114528600Y-102788720D01*
X114701320Y-102882700D01*
X114886740Y-102956360D01*
X114932460Y-102971600D01*
X115021360Y-102994460D01*
X115105180Y-103009700D01*
X115191540Y-103022400D01*
X115285520Y-103027480D01*
X115394740Y-103027480D01*
X115394740Y-103027480D01*
G36*
X114932460Y-105892600D02*
X115105180Y-105882440D01*
X115262660Y-105854500D01*
X115407440Y-105806240D01*
X115544600Y-105737660D01*
X115653820Y-105658920D01*
X114932460Y-105658920D01*
X114795300Y-105651300D01*
X114673380Y-105630980D01*
X114556540Y-105592880D01*
X114493040Y-105564940D01*
X114366040Y-105491280D01*
X114249200Y-105394760D01*
X114145060Y-105283000D01*
X114056160Y-105158540D01*
X113990120Y-105023920D01*
X113959640Y-104942640D01*
X113946940Y-104902000D01*
X113939320Y-104861360D01*
X113934240Y-104815640D01*
X113931700Y-104762300D01*
X113929160Y-104691180D01*
X113929160Y-104655620D01*
X113931700Y-104576880D01*
X113931700Y-104515920D01*
X113936780Y-104467660D01*
X113944400Y-104427020D01*
X113954560Y-104386380D01*
X113959640Y-104368600D01*
X114018060Y-104221280D01*
X114099340Y-104089200D01*
X114198400Y-103967280D01*
X114315240Y-103860600D01*
X114447320Y-103771700D01*
X114592100Y-103705660D01*
X114673380Y-103677720D01*
X114754660Y-103662480D01*
X114851180Y-103652320D01*
X114952780Y-103649780D01*
X115051840Y-103654860D01*
X115140740Y-103665020D01*
X115173760Y-103672640D01*
X115323620Y-103728520D01*
X115463320Y-103804720D01*
X115590320Y-103901240D01*
X115702080Y-104015540D01*
X115752880Y-104084120D01*
X115834160Y-104216200D01*
X115892580Y-104360980D01*
X115928140Y-104513380D01*
X115935760Y-104670860D01*
X115925600Y-104800400D01*
X115900200Y-104917240D01*
X115859560Y-105036620D01*
X115806220Y-105148380D01*
X115790980Y-105176320D01*
X115763040Y-105216960D01*
X115722400Y-105267760D01*
X115671600Y-105323640D01*
X115620800Y-105376980D01*
X115620800Y-105376980D01*
X115564920Y-105435400D01*
X115514120Y-105478580D01*
X115468400Y-105511600D01*
X115420140Y-105539540D01*
X115392200Y-105554780D01*
X115280440Y-105603040D01*
X115168680Y-105636060D01*
X115054380Y-105653840D01*
X114932460Y-105658920D01*
X115653820Y-105658920D01*
X115671600Y-105648760D01*
X115780820Y-105549700D01*
X115902740Y-105412540D01*
X116001800Y-105270300D01*
X116078000Y-105117900D01*
X116128800Y-104957880D01*
X116131340Y-104955340D01*
X116144040Y-104879140D01*
X116154200Y-104790240D01*
X116161820Y-104693720D01*
X116164360Y-104599740D01*
X116161820Y-104518460D01*
X116156740Y-104465120D01*
X116116100Y-104297480D01*
X116052600Y-104137460D01*
X115966240Y-103987600D01*
X115859560Y-103845360D01*
X115801140Y-103784400D01*
X115663980Y-103665020D01*
X115521740Y-103568500D01*
X115364260Y-103494840D01*
X115239800Y-103454200D01*
X115183920Y-103441500D01*
X115130580Y-103431340D01*
X115077240Y-103426260D01*
X115013740Y-103423720D01*
X114940080Y-103421180D01*
X114820700Y-103426260D01*
X114724180Y-103433880D01*
X114668300Y-103444040D01*
X114503200Y-103492300D01*
X114348260Y-103563420D01*
X114206020Y-103654860D01*
X114073940Y-103764080D01*
X113959640Y-103888540D01*
X113863120Y-104025700D01*
X113786920Y-104173020D01*
X113731040Y-104333040D01*
X113723420Y-104363520D01*
X113710720Y-104442260D01*
X113703100Y-104538780D01*
X113700560Y-104640380D01*
X113700560Y-104747060D01*
X113708180Y-104846120D01*
X113720880Y-104932480D01*
X113731040Y-104975660D01*
X113786920Y-105140760D01*
X113868200Y-105295700D01*
X113972340Y-105440480D01*
X114096800Y-105570020D01*
X114239040Y-105684320D01*
X114254280Y-105697020D01*
X114376200Y-105770680D01*
X114495580Y-105824020D01*
X114622580Y-105862120D01*
X114762280Y-105884980D01*
X114917220Y-105892600D01*
X114932460Y-105892600D01*
X114932460Y-105892600D01*
X114932460Y-105892600D01*
G37*
X114932460Y-105892600D02*
X115105180Y-105882440D01*
X115262660Y-105854500D01*
X115407440Y-105806240D01*
X115544600Y-105737660D01*
X115653820Y-105658920D01*
X114932460Y-105658920D01*
X114795300Y-105651300D01*
X114673380Y-105630980D01*
X114556540Y-105592880D01*
X114493040Y-105564940D01*
X114366040Y-105491280D01*
X114249200Y-105394760D01*
X114145060Y-105283000D01*
X114056160Y-105158540D01*
X113990120Y-105023920D01*
X113959640Y-104942640D01*
X113946940Y-104902000D01*
X113939320Y-104861360D01*
X113934240Y-104815640D01*
X113931700Y-104762300D01*
X113929160Y-104691180D01*
X113929160Y-104655620D01*
X113931700Y-104576880D01*
X113931700Y-104515920D01*
X113936780Y-104467660D01*
X113944400Y-104427020D01*
X113954560Y-104386380D01*
X113959640Y-104368600D01*
X114018060Y-104221280D01*
X114099340Y-104089200D01*
X114198400Y-103967280D01*
X114315240Y-103860600D01*
X114447320Y-103771700D01*
X114592100Y-103705660D01*
X114673380Y-103677720D01*
X114754660Y-103662480D01*
X114851180Y-103652320D01*
X114952780Y-103649780D01*
X115051840Y-103654860D01*
X115140740Y-103665020D01*
X115173760Y-103672640D01*
X115323620Y-103728520D01*
X115463320Y-103804720D01*
X115590320Y-103901240D01*
X115702080Y-104015540D01*
X115752880Y-104084120D01*
X115834160Y-104216200D01*
X115892580Y-104360980D01*
X115928140Y-104513380D01*
X115935760Y-104670860D01*
X115925600Y-104800400D01*
X115900200Y-104917240D01*
X115859560Y-105036620D01*
X115806220Y-105148380D01*
X115790980Y-105176320D01*
X115763040Y-105216960D01*
X115722400Y-105267760D01*
X115671600Y-105323640D01*
X115620800Y-105376980D01*
X115620800Y-105376980D01*
X115564920Y-105435400D01*
X115514120Y-105478580D01*
X115468400Y-105511600D01*
X115420140Y-105539540D01*
X115392200Y-105554780D01*
X115280440Y-105603040D01*
X115168680Y-105636060D01*
X115054380Y-105653840D01*
X114932460Y-105658920D01*
X115653820Y-105658920D01*
X115671600Y-105648760D01*
X115780820Y-105549700D01*
X115902740Y-105412540D01*
X116001800Y-105270300D01*
X116078000Y-105117900D01*
X116128800Y-104957880D01*
X116131340Y-104955340D01*
X116144040Y-104879140D01*
X116154200Y-104790240D01*
X116161820Y-104693720D01*
X116164360Y-104599740D01*
X116161820Y-104518460D01*
X116156740Y-104465120D01*
X116116100Y-104297480D01*
X116052600Y-104137460D01*
X115966240Y-103987600D01*
X115859560Y-103845360D01*
X115801140Y-103784400D01*
X115663980Y-103665020D01*
X115521740Y-103568500D01*
X115364260Y-103494840D01*
X115239800Y-103454200D01*
X115183920Y-103441500D01*
X115130580Y-103431340D01*
X115077240Y-103426260D01*
X115013740Y-103423720D01*
X114940080Y-103421180D01*
X114820700Y-103426260D01*
X114724180Y-103433880D01*
X114668300Y-103444040D01*
X114503200Y-103492300D01*
X114348260Y-103563420D01*
X114206020Y-103654860D01*
X114073940Y-103764080D01*
X113959640Y-103888540D01*
X113863120Y-104025700D01*
X113786920Y-104173020D01*
X113731040Y-104333040D01*
X113723420Y-104363520D01*
X113710720Y-104442260D01*
X113703100Y-104538780D01*
X113700560Y-104640380D01*
X113700560Y-104747060D01*
X113708180Y-104846120D01*
X113720880Y-104932480D01*
X113731040Y-104975660D01*
X113786920Y-105140760D01*
X113868200Y-105295700D01*
X113972340Y-105440480D01*
X114096800Y-105570020D01*
X114239040Y-105684320D01*
X114254280Y-105697020D01*
X114376200Y-105770680D01*
X114495580Y-105824020D01*
X114622580Y-105862120D01*
X114762280Y-105884980D01*
X114917220Y-105892600D01*
X114932460Y-105892600D01*
X114932460Y-105892600D01*
G36*
X114960400Y-108666280D02*
X115059460Y-108663740D01*
X115148360Y-108656120D01*
X115219480Y-108645960D01*
X115229640Y-108643420D01*
X115397280Y-108590080D01*
X115552220Y-108511340D01*
X115653820Y-108440220D01*
X114970560Y-108440220D01*
X114894360Y-108440220D01*
X114790220Y-108432600D01*
X114703860Y-108419900D01*
X114625120Y-108402120D01*
X114546380Y-108371640D01*
X114480340Y-108341160D01*
X114350800Y-108262420D01*
X114233960Y-108165900D01*
X114129820Y-108049060D01*
X114043460Y-107922060D01*
X113979960Y-107784900D01*
X113964720Y-107741720D01*
X113941860Y-107652820D01*
X113929160Y-107548680D01*
X113924080Y-107436920D01*
X113926620Y-107327700D01*
X113939320Y-107231180D01*
X113941860Y-107221020D01*
X113987580Y-107073700D01*
X114056160Y-106936540D01*
X114142520Y-106809540D01*
X114249200Y-106697780D01*
X114373660Y-106601260D01*
X114510820Y-106522520D01*
X114625120Y-106474260D01*
X114675920Y-106456480D01*
X114719100Y-106446320D01*
X114757200Y-106438700D01*
X114800380Y-106433620D01*
X114856260Y-106431080D01*
X114927380Y-106431080D01*
X115036600Y-106433620D01*
X115130580Y-106443780D01*
X115214400Y-106464100D01*
X115295680Y-106492040D01*
X115359180Y-106522520D01*
X115460780Y-106583480D01*
X115562380Y-106659680D01*
X115653820Y-106748580D01*
X115737640Y-106842560D01*
X115796060Y-106928920D01*
X115862100Y-107061000D01*
X115905280Y-107203240D01*
X115930680Y-107353100D01*
X115933220Y-107505500D01*
X115912900Y-107652820D01*
X115900200Y-107701080D01*
X115851940Y-107835700D01*
X115780820Y-107967780D01*
X115694460Y-108087160D01*
X115590320Y-108196380D01*
X115481100Y-108285280D01*
X115361720Y-108353860D01*
X115346480Y-108361480D01*
X115227100Y-108404660D01*
X115105180Y-108430060D01*
X114970560Y-108440220D01*
X115653820Y-108440220D01*
X115694460Y-108412280D01*
X115824000Y-108292900D01*
X115915440Y-108183680D01*
X116011960Y-108033820D01*
X116085620Y-107876340D01*
X116136420Y-107708700D01*
X116161820Y-107535980D01*
X116164360Y-107358180D01*
X116149120Y-107228640D01*
X116111020Y-107066080D01*
X116050060Y-106911140D01*
X115963700Y-106763820D01*
X115857020Y-106624120D01*
X115730020Y-106499660D01*
X115709700Y-106481880D01*
X115570000Y-106377740D01*
X115420140Y-106299000D01*
X115260120Y-106240580D01*
X115095020Y-106207560D01*
X114927380Y-106197400D01*
X114757200Y-106210100D01*
X114589560Y-106245660D01*
X114424460Y-106306620D01*
X114388900Y-106324400D01*
X114241580Y-106408220D01*
X114104420Y-106514900D01*
X113985040Y-106636820D01*
X113883440Y-106773980D01*
X113799620Y-106921300D01*
X113741200Y-107078780D01*
X113728500Y-107114340D01*
X113718340Y-107160060D01*
X113710720Y-107203240D01*
X113705640Y-107248960D01*
X113703100Y-107304840D01*
X113700560Y-107375960D01*
X113700560Y-107439460D01*
X113703100Y-107528360D01*
X113705640Y-107594400D01*
X113708180Y-107647740D01*
X113715800Y-107693460D01*
X113723420Y-107736640D01*
X113731040Y-107759500D01*
X113764060Y-107863640D01*
X113812320Y-107972860D01*
X113865660Y-108077000D01*
X113916460Y-108155740D01*
X113959640Y-108209080D01*
X114018060Y-108272580D01*
X114081560Y-108338620D01*
X114147600Y-108399580D01*
X114206020Y-108447840D01*
X114233960Y-108465620D01*
X114310160Y-108513880D01*
X114401600Y-108559600D01*
X114495580Y-108600240D01*
X114587020Y-108630720D01*
X114607340Y-108635800D01*
X114675920Y-108651040D01*
X114762280Y-108658660D01*
X114858800Y-108666280D01*
X114960400Y-108666280D01*
X114960400Y-108666280D01*
X114960400Y-108666280D01*
G37*
X114960400Y-108666280D02*
X115059460Y-108663740D01*
X115148360Y-108656120D01*
X115219480Y-108645960D01*
X115229640Y-108643420D01*
X115397280Y-108590080D01*
X115552220Y-108511340D01*
X115653820Y-108440220D01*
X114970560Y-108440220D01*
X114894360Y-108440220D01*
X114790220Y-108432600D01*
X114703860Y-108419900D01*
X114625120Y-108402120D01*
X114546380Y-108371640D01*
X114480340Y-108341160D01*
X114350800Y-108262420D01*
X114233960Y-108165900D01*
X114129820Y-108049060D01*
X114043460Y-107922060D01*
X113979960Y-107784900D01*
X113964720Y-107741720D01*
X113941860Y-107652820D01*
X113929160Y-107548680D01*
X113924080Y-107436920D01*
X113926620Y-107327700D01*
X113939320Y-107231180D01*
X113941860Y-107221020D01*
X113987580Y-107073700D01*
X114056160Y-106936540D01*
X114142520Y-106809540D01*
X114249200Y-106697780D01*
X114373660Y-106601260D01*
X114510820Y-106522520D01*
X114625120Y-106474260D01*
X114675920Y-106456480D01*
X114719100Y-106446320D01*
X114757200Y-106438700D01*
X114800380Y-106433620D01*
X114856260Y-106431080D01*
X114927380Y-106431080D01*
X115036600Y-106433620D01*
X115130580Y-106443780D01*
X115214400Y-106464100D01*
X115295680Y-106492040D01*
X115359180Y-106522520D01*
X115460780Y-106583480D01*
X115562380Y-106659680D01*
X115653820Y-106748580D01*
X115737640Y-106842560D01*
X115796060Y-106928920D01*
X115862100Y-107061000D01*
X115905280Y-107203240D01*
X115930680Y-107353100D01*
X115933220Y-107505500D01*
X115912900Y-107652820D01*
X115900200Y-107701080D01*
X115851940Y-107835700D01*
X115780820Y-107967780D01*
X115694460Y-108087160D01*
X115590320Y-108196380D01*
X115481100Y-108285280D01*
X115361720Y-108353860D01*
X115346480Y-108361480D01*
X115227100Y-108404660D01*
X115105180Y-108430060D01*
X114970560Y-108440220D01*
X115653820Y-108440220D01*
X115694460Y-108412280D01*
X115824000Y-108292900D01*
X115915440Y-108183680D01*
X116011960Y-108033820D01*
X116085620Y-107876340D01*
X116136420Y-107708700D01*
X116161820Y-107535980D01*
X116164360Y-107358180D01*
X116149120Y-107228640D01*
X116111020Y-107066080D01*
X116050060Y-106911140D01*
X115963700Y-106763820D01*
X115857020Y-106624120D01*
X115730020Y-106499660D01*
X115709700Y-106481880D01*
X115570000Y-106377740D01*
X115420140Y-106299000D01*
X115260120Y-106240580D01*
X115095020Y-106207560D01*
X114927380Y-106197400D01*
X114757200Y-106210100D01*
X114589560Y-106245660D01*
X114424460Y-106306620D01*
X114388900Y-106324400D01*
X114241580Y-106408220D01*
X114104420Y-106514900D01*
X113985040Y-106636820D01*
X113883440Y-106773980D01*
X113799620Y-106921300D01*
X113741200Y-107078780D01*
X113728500Y-107114340D01*
X113718340Y-107160060D01*
X113710720Y-107203240D01*
X113705640Y-107248960D01*
X113703100Y-107304840D01*
X113700560Y-107375960D01*
X113700560Y-107439460D01*
X113703100Y-107528360D01*
X113705640Y-107594400D01*
X113708180Y-107647740D01*
X113715800Y-107693460D01*
X113723420Y-107736640D01*
X113731040Y-107759500D01*
X113764060Y-107863640D01*
X113812320Y-107972860D01*
X113865660Y-108077000D01*
X113916460Y-108155740D01*
X113959640Y-108209080D01*
X114018060Y-108272580D01*
X114081560Y-108338620D01*
X114147600Y-108399580D01*
X114206020Y-108447840D01*
X114233960Y-108465620D01*
X114310160Y-108513880D01*
X114401600Y-108559600D01*
X114495580Y-108600240D01*
X114587020Y-108630720D01*
X114607340Y-108635800D01*
X114675920Y-108651040D01*
X114762280Y-108658660D01*
X114858800Y-108666280D01*
X114960400Y-108666280D01*
X114960400Y-108666280D01*
G36*
X115674140Y-101356160D02*
X115712240Y-101333300D01*
X115757960Y-101300280D01*
X115806220Y-101249480D01*
X115851940Y-101196140D01*
X115884960Y-101142800D01*
X115890040Y-101130100D01*
X115917980Y-101038660D01*
X115928140Y-100931980D01*
X115925600Y-100850700D01*
X115902740Y-100741480D01*
X115862100Y-100647500D01*
X115801140Y-100568760D01*
X115722400Y-100505260D01*
X115628420Y-100459540D01*
X115524280Y-100431600D01*
X115402360Y-100426520D01*
X115369340Y-100429060D01*
X115257580Y-100444300D01*
X115163600Y-100479860D01*
X115079780Y-100533200D01*
X115054380Y-100553520D01*
X114983260Y-100634800D01*
X114932460Y-100731320D01*
X114904520Y-100835460D01*
X114901980Y-100949760D01*
X114907060Y-101000560D01*
X114919760Y-101058980D01*
X114935000Y-101119940D01*
X114952780Y-101160580D01*
X114975640Y-101198680D01*
X115008660Y-101241860D01*
X115046760Y-101282500D01*
X115082320Y-101315520D01*
X115115340Y-101338380D01*
X115130580Y-101343460D01*
X115145820Y-101333300D01*
X115166140Y-101305360D01*
X115189000Y-101262180D01*
X115201700Y-101241860D01*
X115252500Y-101140260D01*
X115189000Y-101079300D01*
X115153440Y-101043740D01*
X115135660Y-101018340D01*
X115125500Y-100995480D01*
X115122960Y-100962460D01*
X115122960Y-100944680D01*
X115135660Y-100873560D01*
X115166140Y-100815140D01*
X115219480Y-100766880D01*
X115227100Y-100764340D01*
X115270280Y-100746560D01*
X115333780Y-100736400D01*
X115402360Y-100731320D01*
X115476020Y-100733860D01*
X115539520Y-100741480D01*
X115570000Y-100749100D01*
X115630960Y-100779580D01*
X115674140Y-100822760D01*
X115697000Y-100881180D01*
X115702080Y-100942140D01*
X115697000Y-101010720D01*
X115676680Y-101058980D01*
X115636040Y-101102160D01*
X115610640Y-101119940D01*
X115582700Y-101140260D01*
X115570000Y-101155500D01*
X115570000Y-101155500D01*
X115575080Y-101170740D01*
X115590320Y-101203760D01*
X115613180Y-101244400D01*
X115620800Y-101262180D01*
X115674140Y-101356160D01*
X115674140Y-101356160D01*
X115674140Y-101356160D01*
G37*
X115674140Y-101356160D02*
X115712240Y-101333300D01*
X115757960Y-101300280D01*
X115806220Y-101249480D01*
X115851940Y-101196140D01*
X115884960Y-101142800D01*
X115890040Y-101130100D01*
X115917980Y-101038660D01*
X115928140Y-100931980D01*
X115925600Y-100850700D01*
X115902740Y-100741480D01*
X115862100Y-100647500D01*
X115801140Y-100568760D01*
X115722400Y-100505260D01*
X115628420Y-100459540D01*
X115524280Y-100431600D01*
X115402360Y-100426520D01*
X115369340Y-100429060D01*
X115257580Y-100444300D01*
X115163600Y-100479860D01*
X115079780Y-100533200D01*
X115054380Y-100553520D01*
X114983260Y-100634800D01*
X114932460Y-100731320D01*
X114904520Y-100835460D01*
X114901980Y-100949760D01*
X114907060Y-101000560D01*
X114919760Y-101058980D01*
X114935000Y-101119940D01*
X114952780Y-101160580D01*
X114975640Y-101198680D01*
X115008660Y-101241860D01*
X115046760Y-101282500D01*
X115082320Y-101315520D01*
X115115340Y-101338380D01*
X115130580Y-101343460D01*
X115145820Y-101333300D01*
X115166140Y-101305360D01*
X115189000Y-101262180D01*
X115201700Y-101241860D01*
X115252500Y-101140260D01*
X115189000Y-101079300D01*
X115153440Y-101043740D01*
X115135660Y-101018340D01*
X115125500Y-100995480D01*
X115122960Y-100962460D01*
X115122960Y-100944680D01*
X115135660Y-100873560D01*
X115166140Y-100815140D01*
X115219480Y-100766880D01*
X115227100Y-100764340D01*
X115270280Y-100746560D01*
X115333780Y-100736400D01*
X115402360Y-100731320D01*
X115476020Y-100733860D01*
X115539520Y-100741480D01*
X115570000Y-100749100D01*
X115630960Y-100779580D01*
X115674140Y-100822760D01*
X115697000Y-100881180D01*
X115702080Y-100942140D01*
X115697000Y-101010720D01*
X115676680Y-101058980D01*
X115636040Y-101102160D01*
X115610640Y-101119940D01*
X115582700Y-101140260D01*
X115570000Y-101155500D01*
X115570000Y-101155500D01*
X115575080Y-101170740D01*
X115590320Y-101203760D01*
X115613180Y-101244400D01*
X115620800Y-101262180D01*
X115674140Y-101356160D01*
X115674140Y-101356160D01*
G36*
X115671600Y-102306120D02*
X115686840Y-102306120D01*
X115714780Y-102290880D01*
X115737640Y-102275640D01*
X115818920Y-102201980D01*
X115874800Y-102120700D01*
X115912900Y-102029260D01*
X115928140Y-101925120D01*
X115925600Y-101808280D01*
X115907820Y-101711760D01*
X115872260Y-101627940D01*
X115818920Y-101551740D01*
X115806220Y-101539040D01*
X115727480Y-101473000D01*
X115636040Y-101424740D01*
X115529360Y-101396800D01*
X115509040Y-101394260D01*
X115389660Y-101389180D01*
X115280440Y-101401880D01*
X115176300Y-101434900D01*
X115087400Y-101485700D01*
X115013740Y-101551740D01*
X114955320Y-101633020D01*
X114932460Y-101681280D01*
X114909600Y-101780340D01*
X114901980Y-101887020D01*
X114912140Y-101993700D01*
X114940080Y-102092760D01*
X114945160Y-102105460D01*
X114970560Y-102151180D01*
X115008660Y-102201980D01*
X115051840Y-102247700D01*
X115092480Y-102283260D01*
X115110260Y-102295960D01*
X115128040Y-102303580D01*
X115140740Y-102303580D01*
X115150900Y-102290880D01*
X115166140Y-102265480D01*
X115189000Y-102222300D01*
X115199160Y-102204520D01*
X115252500Y-102097840D01*
X115189000Y-102036880D01*
X115153440Y-102001320D01*
X115135660Y-101978460D01*
X115125500Y-101953060D01*
X115122960Y-101920040D01*
X115122960Y-101904800D01*
X115133120Y-101833680D01*
X115161060Y-101777800D01*
X115211860Y-101734620D01*
X115244880Y-101714300D01*
X115310920Y-101693980D01*
X115389660Y-101683820D01*
X115473480Y-101683820D01*
X115549680Y-101699060D01*
X115585240Y-101711760D01*
X115643660Y-101749860D01*
X115684300Y-101800660D01*
X115704620Y-101861620D01*
X115707160Y-101927660D01*
X115686840Y-101991160D01*
X115646200Y-102047040D01*
X115615720Y-102074980D01*
X115590320Y-102095300D01*
X115580160Y-102100380D01*
X115575080Y-102108000D01*
X115575080Y-102125780D01*
X115587780Y-102156260D01*
X115613180Y-102201980D01*
X115636040Y-102245160D01*
X115656360Y-102283260D01*
X115669060Y-102303580D01*
X115671600Y-102306120D01*
X115671600Y-102306120D01*
X115671600Y-102306120D01*
G37*
X115671600Y-102306120D02*
X115686840Y-102306120D01*
X115714780Y-102290880D01*
X115737640Y-102275640D01*
X115818920Y-102201980D01*
X115874800Y-102120700D01*
X115912900Y-102029260D01*
X115928140Y-101925120D01*
X115925600Y-101808280D01*
X115907820Y-101711760D01*
X115872260Y-101627940D01*
X115818920Y-101551740D01*
X115806220Y-101539040D01*
X115727480Y-101473000D01*
X115636040Y-101424740D01*
X115529360Y-101396800D01*
X115509040Y-101394260D01*
X115389660Y-101389180D01*
X115280440Y-101401880D01*
X115176300Y-101434900D01*
X115087400Y-101485700D01*
X115013740Y-101551740D01*
X114955320Y-101633020D01*
X114932460Y-101681280D01*
X114909600Y-101780340D01*
X114901980Y-101887020D01*
X114912140Y-101993700D01*
X114940080Y-102092760D01*
X114945160Y-102105460D01*
X114970560Y-102151180D01*
X115008660Y-102201980D01*
X115051840Y-102247700D01*
X115092480Y-102283260D01*
X115110260Y-102295960D01*
X115128040Y-102303580D01*
X115140740Y-102303580D01*
X115150900Y-102290880D01*
X115166140Y-102265480D01*
X115189000Y-102222300D01*
X115199160Y-102204520D01*
X115252500Y-102097840D01*
X115189000Y-102036880D01*
X115153440Y-102001320D01*
X115135660Y-101978460D01*
X115125500Y-101953060D01*
X115122960Y-101920040D01*
X115122960Y-101904800D01*
X115133120Y-101833680D01*
X115161060Y-101777800D01*
X115211860Y-101734620D01*
X115244880Y-101714300D01*
X115310920Y-101693980D01*
X115389660Y-101683820D01*
X115473480Y-101683820D01*
X115549680Y-101699060D01*
X115585240Y-101711760D01*
X115643660Y-101749860D01*
X115684300Y-101800660D01*
X115704620Y-101861620D01*
X115707160Y-101927660D01*
X115686840Y-101991160D01*
X115646200Y-102047040D01*
X115615720Y-102074980D01*
X115590320Y-102095300D01*
X115580160Y-102100380D01*
X115575080Y-102108000D01*
X115575080Y-102125780D01*
X115587780Y-102156260D01*
X115613180Y-102201980D01*
X115636040Y-102245160D01*
X115656360Y-102283260D01*
X115669060Y-102303580D01*
X115671600Y-102306120D01*
X115671600Y-102306120D01*
G36*
X114663220Y-104985820D02*
X114703860Y-104983280D01*
X114759740Y-104983280D01*
X114828320Y-104983280D01*
X114894360Y-104983280D01*
X115122960Y-104980740D01*
X115128040Y-104914700D01*
X115130580Y-104848660D01*
X115427760Y-104843580D01*
X115722400Y-104841040D01*
X115722400Y-104650540D01*
X115722400Y-104457500D01*
X115422680Y-104457500D01*
X115122960Y-104457500D01*
X115125500Y-104404160D01*
X115125500Y-104366060D01*
X115125500Y-104338120D01*
X115125500Y-104333040D01*
X115117880Y-104327960D01*
X115097560Y-104322880D01*
X115062000Y-104320340D01*
X115006120Y-104317800D01*
X114929920Y-104317800D01*
X114863880Y-104317800D01*
X114774980Y-104317800D01*
X114703860Y-104317800D01*
X114653060Y-104320340D01*
X114620040Y-104325420D01*
X114594640Y-104327960D01*
X114579400Y-104335580D01*
X114576860Y-104338120D01*
X114569240Y-104345740D01*
X114561620Y-104353360D01*
X114556540Y-104368600D01*
X114554000Y-104391460D01*
X114551460Y-104424480D01*
X114548920Y-104475280D01*
X114548920Y-104543860D01*
X114548920Y-104635300D01*
X114548920Y-104650540D01*
X114548920Y-104749600D01*
X114551460Y-104828340D01*
X114554000Y-104886760D01*
X114559080Y-104929940D01*
X114566700Y-104957880D01*
X114579400Y-104973120D01*
X114597180Y-104980740D01*
X114620040Y-104983280D01*
X114645440Y-104985820D01*
X114663220Y-104985820D01*
X114663220Y-104985820D01*
X114663220Y-104985820D01*
G37*
X114663220Y-104985820D02*
X114703860Y-104983280D01*
X114759740Y-104983280D01*
X114828320Y-104983280D01*
X114894360Y-104983280D01*
X115122960Y-104980740D01*
X115128040Y-104914700D01*
X115130580Y-104848660D01*
X115427760Y-104843580D01*
X115722400Y-104841040D01*
X115722400Y-104650540D01*
X115722400Y-104457500D01*
X115422680Y-104457500D01*
X115122960Y-104457500D01*
X115125500Y-104404160D01*
X115125500Y-104366060D01*
X115125500Y-104338120D01*
X115125500Y-104333040D01*
X115117880Y-104327960D01*
X115097560Y-104322880D01*
X115062000Y-104320340D01*
X115006120Y-104317800D01*
X114929920Y-104317800D01*
X114863880Y-104317800D01*
X114774980Y-104317800D01*
X114703860Y-104317800D01*
X114653060Y-104320340D01*
X114620040Y-104325420D01*
X114594640Y-104327960D01*
X114579400Y-104335580D01*
X114576860Y-104338120D01*
X114569240Y-104345740D01*
X114561620Y-104353360D01*
X114556540Y-104368600D01*
X114554000Y-104391460D01*
X114551460Y-104424480D01*
X114548920Y-104475280D01*
X114548920Y-104543860D01*
X114548920Y-104635300D01*
X114548920Y-104650540D01*
X114548920Y-104749600D01*
X114551460Y-104828340D01*
X114554000Y-104886760D01*
X114559080Y-104929940D01*
X114566700Y-104957880D01*
X114579400Y-104973120D01*
X114597180Y-104980740D01*
X114620040Y-104983280D01*
X114645440Y-104985820D01*
X114663220Y-104985820D01*
X114663220Y-104985820D01*
G36*
X114320320Y-104823260D02*
X114371120Y-104813100D01*
X114416840Y-104785160D01*
X114454940Y-104744520D01*
X114477800Y-104686100D01*
X114477800Y-104681020D01*
X114477800Y-104645460D01*
X114470180Y-104602280D01*
X114465100Y-104592120D01*
X114454940Y-104559100D01*
X114447320Y-104541320D01*
X114447320Y-104538780D01*
X114437160Y-104531160D01*
X114414300Y-104515920D01*
X114404140Y-104510840D01*
X114343180Y-104485440D01*
X114282220Y-104482900D01*
X114228880Y-104500680D01*
X114183160Y-104536240D01*
X114150140Y-104587040D01*
X114137440Y-104648000D01*
X114137440Y-104658160D01*
X114147600Y-104719120D01*
X114178080Y-104767380D01*
X114218720Y-104800400D01*
X114266980Y-104818180D01*
X114320320Y-104823260D01*
X114320320Y-104823260D01*
X114320320Y-104823260D01*
G37*
X114320320Y-104823260D02*
X114371120Y-104813100D01*
X114416840Y-104785160D01*
X114454940Y-104744520D01*
X114477800Y-104686100D01*
X114477800Y-104681020D01*
X114477800Y-104645460D01*
X114470180Y-104602280D01*
X114465100Y-104592120D01*
X114454940Y-104559100D01*
X114447320Y-104541320D01*
X114447320Y-104538780D01*
X114437160Y-104531160D01*
X114414300Y-104515920D01*
X114404140Y-104510840D01*
X114343180Y-104485440D01*
X114282220Y-104482900D01*
X114228880Y-104500680D01*
X114183160Y-104536240D01*
X114150140Y-104587040D01*
X114137440Y-104648000D01*
X114137440Y-104658160D01*
X114147600Y-104719120D01*
X114178080Y-104767380D01*
X114218720Y-104800400D01*
X114266980Y-104818180D01*
X114320320Y-104823260D01*
X114320320Y-104823260D01*
G36*
X114924840Y-108061760D02*
X115046760Y-108054140D01*
X115166140Y-108028740D01*
X115277900Y-107988100D01*
X115321080Y-107960160D01*
X115371880Y-107922060D01*
X115420140Y-107881420D01*
X115425220Y-107876340D01*
X115503960Y-107779820D01*
X115562380Y-107670600D01*
X115592860Y-107553760D01*
X115605560Y-107429300D01*
X115595400Y-107302300D01*
X115592860Y-107294680D01*
X115562380Y-107188000D01*
X115506500Y-107091480D01*
X115432840Y-107012740D01*
X115338860Y-106946700D01*
X115227100Y-106898440D01*
X115158520Y-106880660D01*
X115122960Y-106870500D01*
X115122960Y-107030520D01*
X115122960Y-107190540D01*
X115176300Y-107198160D01*
X115229640Y-107215940D01*
X115277900Y-107248960D01*
X115313460Y-107289600D01*
X115316000Y-107294680D01*
X115326160Y-107322620D01*
X115336320Y-107363260D01*
X115341400Y-107393740D01*
X115346480Y-107480100D01*
X115326160Y-107556300D01*
X115285520Y-107622340D01*
X115222020Y-107675680D01*
X115138200Y-107713780D01*
X115034060Y-107739180D01*
X115034060Y-107739180D01*
X114942620Y-107746800D01*
X114848640Y-107741720D01*
X114759740Y-107726480D01*
X114683540Y-107698540D01*
X114675920Y-107696000D01*
X114617500Y-107652820D01*
X114571780Y-107594400D01*
X114548920Y-107533440D01*
X114538760Y-107454700D01*
X114548920Y-107375960D01*
X114576860Y-107307380D01*
X114620040Y-107251500D01*
X114668300Y-107218480D01*
X114711480Y-107198160D01*
X114736880Y-107193080D01*
X114749580Y-107203240D01*
X114754660Y-107228640D01*
X114754660Y-107238800D01*
X114754660Y-107287060D01*
X114879120Y-107162600D01*
X115003580Y-107038140D01*
X114879120Y-106913680D01*
X114754660Y-106789220D01*
X114754660Y-106834940D01*
X114747040Y-106873040D01*
X114726720Y-106893360D01*
X114691160Y-106898440D01*
X114660680Y-106903520D01*
X114614960Y-106923840D01*
X114561620Y-106951780D01*
X114508280Y-106982260D01*
X114462560Y-107015280D01*
X114429540Y-107043220D01*
X114363500Y-107127040D01*
X114315240Y-107223560D01*
X114287300Y-107330240D01*
X114279680Y-107444540D01*
X114289840Y-107561380D01*
X114322860Y-107675680D01*
X114353340Y-107741720D01*
X114411760Y-107833160D01*
X114490500Y-107909360D01*
X114584480Y-107972860D01*
X114691160Y-108018580D01*
X114805460Y-108049060D01*
X114924840Y-108061760D01*
X114924840Y-108061760D01*
X114924840Y-108061760D01*
G37*
X114924840Y-108061760D02*
X115046760Y-108054140D01*
X115166140Y-108028740D01*
X115277900Y-107988100D01*
X115321080Y-107960160D01*
X115371880Y-107922060D01*
X115420140Y-107881420D01*
X115425220Y-107876340D01*
X115503960Y-107779820D01*
X115562380Y-107670600D01*
X115592860Y-107553760D01*
X115605560Y-107429300D01*
X115595400Y-107302300D01*
X115592860Y-107294680D01*
X115562380Y-107188000D01*
X115506500Y-107091480D01*
X115432840Y-107012740D01*
X115338860Y-106946700D01*
X115227100Y-106898440D01*
X115158520Y-106880660D01*
X115122960Y-106870500D01*
X115122960Y-107030520D01*
X115122960Y-107190540D01*
X115176300Y-107198160D01*
X115229640Y-107215940D01*
X115277900Y-107248960D01*
X115313460Y-107289600D01*
X115316000Y-107294680D01*
X115326160Y-107322620D01*
X115336320Y-107363260D01*
X115341400Y-107393740D01*
X115346480Y-107480100D01*
X115326160Y-107556300D01*
X115285520Y-107622340D01*
X115222020Y-107675680D01*
X115138200Y-107713780D01*
X115034060Y-107739180D01*
X115034060Y-107739180D01*
X114942620Y-107746800D01*
X114848640Y-107741720D01*
X114759740Y-107726480D01*
X114683540Y-107698540D01*
X114675920Y-107696000D01*
X114617500Y-107652820D01*
X114571780Y-107594400D01*
X114548920Y-107533440D01*
X114538760Y-107454700D01*
X114548920Y-107375960D01*
X114576860Y-107307380D01*
X114620040Y-107251500D01*
X114668300Y-107218480D01*
X114711480Y-107198160D01*
X114736880Y-107193080D01*
X114749580Y-107203240D01*
X114754660Y-107228640D01*
X114754660Y-107238800D01*
X114754660Y-107287060D01*
X114879120Y-107162600D01*
X115003580Y-107038140D01*
X114879120Y-106913680D01*
X114754660Y-106789220D01*
X114754660Y-106834940D01*
X114747040Y-106873040D01*
X114726720Y-106893360D01*
X114691160Y-106898440D01*
X114660680Y-106903520D01*
X114614960Y-106923840D01*
X114561620Y-106951780D01*
X114508280Y-106982260D01*
X114462560Y-107015280D01*
X114429540Y-107043220D01*
X114363500Y-107127040D01*
X114315240Y-107223560D01*
X114287300Y-107330240D01*
X114279680Y-107444540D01*
X114289840Y-107561380D01*
X114322860Y-107675680D01*
X114353340Y-107741720D01*
X114411760Y-107833160D01*
X114490500Y-107909360D01*
X114584480Y-107972860D01*
X114691160Y-108018580D01*
X114805460Y-108049060D01*
X114924840Y-108061760D01*
X114924840Y-108061760D01*
M02*
