G04 #@! TF.FileFunction,Copper,L1,Top,Signal*
%FSLAX46Y46*%
G04 Gerber Fmt 4.6, Leading zero omitted, Abs format (unit mm)*
G04 Created by KiCad (PCBNEW 4.0.7) date 06/07/18 15:13:04*
%MOMM*%
%LPD*%
G01*
G04 APERTURE LIST*
%ADD10C,0.100000*%
%ADD11C,1.998980*%
%ADD12O,1.524000X2.199640*%
%ADD13O,1.524000X2.197100*%
%ADD14O,1.998980X1.501140*%
%ADD15C,3.500120*%
%ADD16C,7.800000*%
%ADD17C,0.620000*%
%ADD18C,2.000000*%
%ADD19C,0.250000*%
G04 APERTURE END LIST*
D10*
D11*
X124088026Y-122291974D03*
X122291974Y-124088026D03*
X124088026Y-86731974D03*
X122291974Y-88528026D03*
X128533026Y-86731974D03*
X126736974Y-88528026D03*
X132978026Y-86731974D03*
X131181974Y-88528026D03*
X137423026Y-86731974D03*
X135626974Y-88528026D03*
X141868026Y-86731974D03*
X140071974Y-88528026D03*
X146313026Y-86731974D03*
X144516974Y-88528026D03*
X150758026Y-86731974D03*
X148961974Y-88528026D03*
X155203026Y-86731974D03*
X153406974Y-88528026D03*
X159648026Y-86731974D03*
X157851974Y-88528026D03*
X164093026Y-86731974D03*
X162296974Y-88528026D03*
X168538026Y-86731974D03*
X166741974Y-88528026D03*
X172983026Y-86731974D03*
X171186974Y-88528026D03*
X177428026Y-86731974D03*
X175631974Y-88528026D03*
X181873026Y-86731974D03*
X180076974Y-88528026D03*
X124088026Y-91176974D03*
X122291974Y-92973026D03*
X128533026Y-91176974D03*
X126736974Y-92973026D03*
X132978026Y-91176974D03*
X131181974Y-92973026D03*
X137423026Y-91176974D03*
X135626974Y-92973026D03*
X141868026Y-91176974D03*
X140071974Y-92973026D03*
X146313026Y-91176974D03*
X144516974Y-92973026D03*
X150758026Y-91176974D03*
X148961974Y-92973026D03*
X155203026Y-91176974D03*
X153406974Y-92973026D03*
X159648026Y-91176974D03*
X157851974Y-92973026D03*
X164093026Y-91176974D03*
X162296974Y-92973026D03*
X168538026Y-91176974D03*
X166741974Y-92973026D03*
X172983026Y-91176974D03*
X171186974Y-92973026D03*
X177428026Y-91176974D03*
X175631974Y-92973026D03*
X181873026Y-91176974D03*
X180076974Y-92973026D03*
X124088026Y-95621974D03*
X122291974Y-97418026D03*
X128533026Y-95621974D03*
X126736974Y-97418026D03*
X132978026Y-95621974D03*
X131181974Y-97418026D03*
X137423026Y-95621974D03*
X135626974Y-97418026D03*
X141868026Y-95621974D03*
X140071974Y-97418026D03*
X146313026Y-95621974D03*
X144516974Y-97418026D03*
X150758026Y-95621974D03*
X148961974Y-97418026D03*
X155203026Y-95621974D03*
X153406974Y-97418026D03*
X159648026Y-95621974D03*
X157851974Y-97418026D03*
X164093026Y-95621974D03*
X162296974Y-97418026D03*
X168538026Y-95621974D03*
X166741974Y-97418026D03*
X172983026Y-95621974D03*
X171186974Y-97418026D03*
X177428026Y-95621974D03*
X175631974Y-97418026D03*
X181873026Y-95621974D03*
X180076974Y-97418026D03*
X124088026Y-100066974D03*
X122291974Y-101863026D03*
X128533026Y-100066974D03*
X126736974Y-101863026D03*
X132978026Y-100066974D03*
X131181974Y-101863026D03*
X137423026Y-100066974D03*
X135626974Y-101863026D03*
X141868026Y-100066974D03*
X140071974Y-101863026D03*
X146313026Y-100066974D03*
X144516974Y-101863026D03*
X150758026Y-100066974D03*
X148961974Y-101863026D03*
X155203026Y-100066974D03*
X153406974Y-101863026D03*
X159648026Y-100066974D03*
X157851974Y-101863026D03*
X164093026Y-100066974D03*
X162296974Y-101863026D03*
X168538026Y-100066974D03*
X166741974Y-101863026D03*
X172983026Y-100066974D03*
X171186974Y-101863026D03*
X177428026Y-100066974D03*
X175631974Y-101863026D03*
X181873026Y-100066974D03*
X180076974Y-101863026D03*
X124088026Y-104511974D03*
X122291974Y-106308026D03*
X128533026Y-104511974D03*
X126736974Y-106308026D03*
X132978026Y-104511974D03*
X131181974Y-106308026D03*
X137423026Y-104511974D03*
X135626974Y-106308026D03*
X141868026Y-104511974D03*
X140071974Y-106308026D03*
X146313026Y-104511974D03*
X144516974Y-106308026D03*
X150758026Y-104511974D03*
X148961974Y-106308026D03*
X155203026Y-104511974D03*
X153406974Y-106308026D03*
X159648026Y-104511974D03*
X157851974Y-106308026D03*
X164093026Y-104511974D03*
X162296974Y-106308026D03*
X168538026Y-104511974D03*
X166741974Y-106308026D03*
X172983026Y-104511974D03*
X171186974Y-106308026D03*
X177428026Y-104511974D03*
X175631974Y-106308026D03*
X181873026Y-104511974D03*
X180076974Y-106308026D03*
X124088026Y-108956974D03*
X122291974Y-110753026D03*
X128533026Y-108956974D03*
X126736974Y-110753026D03*
X132978026Y-108956974D03*
X131181974Y-110753026D03*
X137423026Y-108956974D03*
X135626974Y-110753026D03*
X141868026Y-108956974D03*
X140071974Y-110753026D03*
X146313026Y-108956974D03*
X144516974Y-110753026D03*
X150758026Y-108956974D03*
X148961974Y-110753026D03*
X155203026Y-108956974D03*
X153406974Y-110753026D03*
X159648026Y-108956974D03*
X157851974Y-110753026D03*
X164093026Y-108956974D03*
X162296974Y-110753026D03*
X168538026Y-108956974D03*
X166741974Y-110753026D03*
X172983026Y-108956974D03*
X171186974Y-110753026D03*
X177428026Y-108956974D03*
X175631974Y-110753026D03*
X181873026Y-108956974D03*
X180076974Y-110753026D03*
X124088026Y-113401974D03*
X122291974Y-115198026D03*
X128533026Y-113401974D03*
X126736974Y-115198026D03*
X132978026Y-113401974D03*
X131181974Y-115198026D03*
X137423026Y-113401974D03*
X135626974Y-115198026D03*
X141868026Y-113401974D03*
X140071974Y-115198026D03*
X146313026Y-113401974D03*
X144516974Y-115198026D03*
X150758026Y-113401974D03*
X148961974Y-115198026D03*
X155203026Y-113401974D03*
X153406974Y-115198026D03*
X159648026Y-113401974D03*
X157851974Y-115198026D03*
X164093026Y-113401974D03*
X162296974Y-115198026D03*
X168538026Y-113401974D03*
X166741974Y-115198026D03*
X172983026Y-113401974D03*
X171186974Y-115198026D03*
X177428026Y-113401974D03*
X175631974Y-115198026D03*
X181873026Y-113401974D03*
X180076974Y-115198026D03*
X124088026Y-117846974D03*
X122291974Y-119643026D03*
X128533026Y-117846974D03*
X126736974Y-119643026D03*
X132978026Y-117846974D03*
X131181974Y-119643026D03*
X137423026Y-117846974D03*
X135626974Y-119643026D03*
X141868026Y-117846974D03*
X140071974Y-119643026D03*
X146313026Y-117846974D03*
X144516974Y-119643026D03*
X150758026Y-117846974D03*
X148961974Y-119643026D03*
X155203026Y-117846974D03*
X153406974Y-119643026D03*
X159648026Y-117846974D03*
X157851974Y-119643026D03*
X164093026Y-117846974D03*
X162296974Y-119643026D03*
X168538026Y-117846974D03*
X166741974Y-119643026D03*
X172983026Y-117846974D03*
X171186974Y-119643026D03*
X177428026Y-117846974D03*
X175631974Y-119643026D03*
X181873026Y-117846974D03*
X180076974Y-119643026D03*
X128533026Y-122291974D03*
X126736974Y-124088026D03*
X132978026Y-122291974D03*
X131181974Y-124088026D03*
X137423026Y-122291974D03*
X135626974Y-124088026D03*
X141868026Y-122291974D03*
X140071974Y-124088026D03*
X146313026Y-122291974D03*
X144516974Y-124088026D03*
X150758026Y-122291974D03*
X148961974Y-124088026D03*
X155203026Y-122291974D03*
X153406974Y-124088026D03*
X159648026Y-122291974D03*
X157851974Y-124088026D03*
X164093026Y-122291974D03*
X162296974Y-124088026D03*
X168538026Y-122291974D03*
X166741974Y-124088026D03*
X172983026Y-122291974D03*
X171186974Y-124088026D03*
X177428026Y-122291974D03*
X175631974Y-124088026D03*
X181873026Y-122291974D03*
X180076974Y-124088026D03*
X119380000Y-125730000D03*
X111760000Y-125730000D03*
X111760000Y-103505000D03*
X119380000Y-103505000D03*
X111760000Y-100330000D03*
X119380000Y-100330000D03*
X111760000Y-97155000D03*
X119380000Y-97155000D03*
X111760000Y-93980000D03*
X119380000Y-93980000D03*
X111760000Y-90805000D03*
X119380000Y-90805000D03*
X111760000Y-87630000D03*
X119380000Y-87630000D03*
X111760000Y-122555000D03*
X119380000Y-122555000D03*
X111760000Y-119380000D03*
X119380000Y-119380000D03*
X111760000Y-116205000D03*
X119380000Y-116205000D03*
X111760000Y-113030000D03*
X119380000Y-113030000D03*
X111760000Y-109855000D03*
X119380000Y-109855000D03*
X111760000Y-106680000D03*
X119380000Y-106680000D03*
D12*
X143510000Y-129540000D03*
X146050000Y-129540000D03*
X148590000Y-129540000D03*
X151130000Y-129540000D03*
X153670000Y-129540000D03*
X156210000Y-129540000D03*
X158750000Y-129540000D03*
X161290000Y-129540000D03*
X166370000Y-129540000D03*
X168910000Y-129540000D03*
X171450000Y-129540000D03*
X173990000Y-129540000D03*
X176530000Y-129540000D03*
X179070000Y-129540000D03*
D13*
X179070000Y-81280000D03*
X176530000Y-81280000D03*
X173990000Y-81280000D03*
X171450000Y-81280000D03*
X168910000Y-81280000D03*
X166370000Y-81280000D03*
X163830000Y-81280000D03*
X161290000Y-81280000D03*
X157226000Y-81280000D03*
X154686000Y-81280000D03*
X152146000Y-81280000D03*
X149606000Y-81280000D03*
X147066000Y-81280000D03*
X144526000Y-81280000D03*
X141986000Y-81280000D03*
X139448540Y-81280000D03*
X136906000Y-81280000D03*
X134366000Y-81280000D03*
D14*
X140850620Y-137119360D03*
X140850620Y-134620000D03*
X140850620Y-132120640D03*
D15*
X133350000Y-140820140D03*
X133350000Y-128419860D03*
D14*
X126349760Y-137119360D03*
X126349760Y-132120640D03*
D16*
X133350000Y-134620000D03*
D17*
X112776000Y-127889000D03*
X113411000Y-126111000D03*
X117221000Y-142621000D03*
X139192000Y-142748000D03*
X127381000Y-126746000D03*
X124333000Y-126238000D03*
X138811000Y-126746000D03*
X141097000Y-127254000D03*
X180594000Y-126365000D03*
X180467000Y-131064000D03*
X174752000Y-126746000D03*
X176784000Y-126111000D03*
X168021000Y-127381000D03*
X169672000Y-126746000D03*
D18*
X118745000Y-131445000D03*
X118745000Y-137795000D03*
X116205000Y-134620000D03*
X121285000Y-134620000D03*
D19*
X111760000Y-125730000D02*
X114935000Y-128905000D01*
X114935000Y-133350000D02*
X116205000Y-134620000D01*
X114935000Y-132715000D02*
X114935000Y-133350000D01*
X114935000Y-128905000D02*
X114935000Y-132715000D01*
X121285000Y-134620000D02*
X120335040Y-133670040D01*
X120335040Y-133670040D02*
X120335040Y-131445000D01*
X125796040Y-125984000D02*
X120335040Y-131445000D01*
X179070000Y-129540000D02*
X175514000Y-125984000D01*
X125796040Y-125984000D02*
X139954000Y-125984000D01*
X139954000Y-125984000D02*
X175514000Y-125984000D01*
X120335040Y-131445000D02*
X118745000Y-131445000D01*
X119380000Y-87630000D02*
X120278026Y-86731974D01*
X120278026Y-86731974D02*
X124088026Y-86731974D01*
X171186974Y-88528026D02*
X173345974Y-88528026D01*
X175142026Y-86731974D02*
X177428026Y-86731974D01*
X173345974Y-88528026D02*
X175142026Y-86731974D01*
X162296974Y-88528026D02*
X164455974Y-88528026D01*
X166252026Y-86731974D02*
X168538026Y-86731974D01*
X164455974Y-88528026D02*
X166252026Y-86731974D01*
X177428026Y-86731974D02*
X178280922Y-86731974D01*
X178280922Y-86731974D02*
X180076974Y-88528026D01*
X168538026Y-86731974D02*
X169390922Y-86731974D01*
X169390922Y-86731974D02*
X171186974Y-88528026D01*
X159648026Y-86731974D02*
X160500922Y-86731974D01*
X160500922Y-86731974D02*
X162296974Y-88528026D01*
X124088026Y-86731974D02*
X128533026Y-86731974D01*
X128533026Y-86731974D02*
X132978026Y-86731974D01*
X132978026Y-86731974D02*
X137423026Y-86731974D01*
X137423026Y-86731974D02*
X141868026Y-86731974D01*
X141868026Y-86731974D02*
X146313026Y-86731974D01*
X146313026Y-86731974D02*
X150758026Y-86731974D01*
X150758026Y-86731974D02*
X155203026Y-86731974D01*
X155203026Y-86731974D02*
X159648026Y-86731974D01*
X128533026Y-122291974D02*
X132978026Y-122291974D01*
X119380000Y-113030000D02*
X120123948Y-113030000D01*
X120123948Y-113030000D02*
X122291974Y-115198026D01*
X171186974Y-124088026D02*
X173345974Y-124088026D01*
X175142026Y-122291974D02*
X177428026Y-122291974D01*
X173345974Y-124088026D02*
X175142026Y-122291974D01*
X162296974Y-124088026D02*
X164455974Y-124088026D01*
X166252026Y-122291974D02*
X168538026Y-122291974D01*
X164455974Y-124088026D02*
X166252026Y-122291974D01*
X122183026Y-119643026D02*
X122291974Y-119643026D01*
X160500922Y-122291974D02*
X162296974Y-124088026D01*
X177428026Y-122291974D02*
X178280922Y-122291974D01*
X178280922Y-122291974D02*
X180076974Y-124088026D01*
X168538026Y-122291974D02*
X169390922Y-122291974D01*
X169390922Y-122291974D02*
X171186974Y-124088026D01*
X159648026Y-122291974D02*
X160500922Y-122291974D01*
X155203026Y-122291974D02*
X159648026Y-122291974D01*
X122291974Y-119643026D02*
X122291974Y-120495922D01*
X124088026Y-122291974D02*
X132978026Y-122291974D01*
X132978026Y-122291974D02*
X137423026Y-122291974D01*
X137423026Y-122291974D02*
X141868026Y-122291974D01*
X141868026Y-122291974D02*
X146313026Y-122291974D01*
X146313026Y-122291974D02*
X150758026Y-122291974D01*
X150758026Y-122291974D02*
X155203026Y-122291974D01*
X119380000Y-109855000D02*
X117856000Y-111379000D01*
X118862974Y-117846974D02*
X124088026Y-117846974D01*
X117856000Y-116840000D02*
X118862974Y-117846974D01*
X117856000Y-111379000D02*
X117856000Y-116840000D01*
X171186974Y-119643026D02*
X173472974Y-119643026D01*
X175269026Y-117846974D02*
X177428026Y-117846974D01*
X173472974Y-119643026D02*
X175269026Y-117846974D01*
X162296974Y-119643026D02*
X164582974Y-119643026D01*
X166379026Y-117846974D02*
X168538026Y-117846974D01*
X164582974Y-119643026D02*
X166379026Y-117846974D01*
X177428026Y-117846974D02*
X178280922Y-117846974D01*
X178280922Y-117846974D02*
X180076974Y-119643026D01*
X168538026Y-117846974D02*
X169390922Y-117846974D01*
X169390922Y-117846974D02*
X171186974Y-119643026D01*
X159648026Y-117846974D02*
X160500922Y-117846974D01*
X160500922Y-117846974D02*
X162296974Y-119643026D01*
X132978026Y-117846974D02*
X137423026Y-117846974D01*
X137423026Y-117846974D02*
X141868026Y-117846974D01*
X141868026Y-117846974D02*
X146313026Y-117846974D01*
X146313026Y-117846974D02*
X150758026Y-117846974D01*
X150758026Y-117846974D02*
X155203026Y-117846974D01*
X155203026Y-117846974D02*
X159648026Y-117846974D01*
X124088026Y-117846974D02*
X128533026Y-117846974D01*
X128533026Y-117846974D02*
X132978026Y-117846974D01*
X119380000Y-106680000D02*
X120904000Y-108204000D01*
X122799974Y-113401974D02*
X124088026Y-113401974D01*
X120904000Y-111506000D02*
X122799974Y-113401974D01*
X120904000Y-108204000D02*
X120904000Y-111506000D01*
X171186974Y-115198026D02*
X173345974Y-115198026D01*
X175142026Y-113401974D02*
X177428026Y-113401974D01*
X173345974Y-115198026D02*
X175142026Y-113401974D01*
X162296974Y-115198026D02*
X164455974Y-115198026D01*
X166252026Y-113401974D02*
X168538026Y-113401974D01*
X164455974Y-115198026D02*
X166252026Y-113401974D01*
X177428026Y-113401974D02*
X178280922Y-113401974D01*
X178280922Y-113401974D02*
X180076974Y-115198026D01*
X168538026Y-113401974D02*
X169390922Y-113401974D01*
X169390922Y-113401974D02*
X171186974Y-115198026D01*
X159648026Y-113401974D02*
X160500922Y-113401974D01*
X160500922Y-113401974D02*
X162296974Y-115198026D01*
X137423026Y-113401974D02*
X141868026Y-113401974D01*
X141868026Y-113401974D02*
X146313026Y-113401974D01*
X146313026Y-113401974D02*
X150758026Y-113401974D01*
X150758026Y-113401974D02*
X155203026Y-113401974D01*
X155203026Y-113401974D02*
X159648026Y-113401974D01*
X124088026Y-113401974D02*
X128533026Y-113401974D01*
X128533026Y-113401974D02*
X132978026Y-113401974D01*
X132978026Y-113401974D02*
X137423026Y-113401974D01*
X122672974Y-108956974D02*
X124088026Y-108956974D01*
X120904000Y-107188000D02*
X122672974Y-108956974D01*
X120904000Y-105029000D02*
X120904000Y-107188000D01*
X119380000Y-103505000D02*
X120904000Y-105029000D01*
X171186974Y-110753026D02*
X173472974Y-110753026D01*
X175269026Y-108956974D02*
X177428026Y-108956974D01*
X173472974Y-110753026D02*
X175269026Y-108956974D01*
X162296974Y-110753026D02*
X164582974Y-110753026D01*
X166379026Y-108956974D02*
X168538026Y-108956974D01*
X164582974Y-110753026D02*
X166379026Y-108956974D01*
X177428026Y-108956974D02*
X178280922Y-108956974D01*
X178280922Y-108956974D02*
X180076974Y-110753026D01*
X168538026Y-108956974D02*
X169390922Y-108956974D01*
X169390922Y-108956974D02*
X171186974Y-110753026D01*
X159648026Y-108956974D02*
X160500922Y-108956974D01*
X160500922Y-108956974D02*
X162296974Y-110753026D01*
X124088026Y-108956974D02*
X128533026Y-108956974D01*
X128533026Y-108956974D02*
X132978026Y-108956974D01*
X132978026Y-108956974D02*
X137423026Y-108956974D01*
X137423026Y-108956974D02*
X141868026Y-108956974D01*
X141868026Y-108956974D02*
X146313026Y-108956974D01*
X146313026Y-108956974D02*
X150758026Y-108956974D01*
X150758026Y-108956974D02*
X155203026Y-108956974D01*
X155203026Y-108956974D02*
X159648026Y-108956974D01*
X119380000Y-100330000D02*
X119380000Y-101092000D01*
X119380000Y-101092000D02*
X122799974Y-104511974D01*
X122799974Y-104511974D02*
X124088026Y-104511974D01*
X171186974Y-106308026D02*
X173345974Y-106308026D01*
X175142026Y-104511974D02*
X177428026Y-104511974D01*
X173345974Y-106308026D02*
X175142026Y-104511974D01*
X162296974Y-106308026D02*
X164455974Y-106308026D01*
X166252026Y-104511974D02*
X168538026Y-104511974D01*
X164455974Y-106308026D02*
X166252026Y-104511974D01*
X177428026Y-104511974D02*
X178280922Y-104511974D01*
X178280922Y-104511974D02*
X180076974Y-106308026D01*
X168538026Y-104511974D02*
X169390922Y-104511974D01*
X169390922Y-104511974D02*
X171186974Y-106308026D01*
X159648026Y-104511974D02*
X160500922Y-104511974D01*
X160500922Y-104511974D02*
X162296974Y-106308026D01*
X155203026Y-104511974D02*
X159648026Y-104511974D01*
X150758026Y-104511974D02*
X155203026Y-104511974D01*
X146313026Y-104511974D02*
X150758026Y-104511974D01*
X141868026Y-104511974D02*
X146313026Y-104511974D01*
X137423026Y-104511974D02*
X141868026Y-104511974D01*
X132978026Y-104511974D02*
X137423026Y-104511974D01*
X124088026Y-104511974D02*
X128533026Y-104511974D01*
X128533026Y-104511974D02*
X132978026Y-104511974D01*
X119380000Y-97155000D02*
X122291974Y-100066974D01*
X122291974Y-100066974D02*
X124088026Y-100066974D01*
X171186974Y-101863026D02*
X173472974Y-101863026D01*
X175269026Y-100066974D02*
X177428026Y-100066974D01*
X173472974Y-101863026D02*
X175269026Y-100066974D01*
X162296974Y-101863026D02*
X164582974Y-101863026D01*
X166379026Y-100066974D02*
X168538026Y-100066974D01*
X164582974Y-101863026D02*
X166379026Y-100066974D01*
X177428026Y-100066974D02*
X178280922Y-100066974D01*
X178280922Y-100066974D02*
X180076974Y-101863026D01*
X168538026Y-100066974D02*
X169390922Y-100066974D01*
X169390922Y-100066974D02*
X171186974Y-101863026D01*
X159648026Y-100066974D02*
X160500922Y-100066974D01*
X160500922Y-100066974D02*
X162296974Y-101863026D01*
X155203026Y-100066974D02*
X159648026Y-100066974D01*
X150758026Y-100066974D02*
X155203026Y-100066974D01*
X146313026Y-100066974D02*
X150758026Y-100066974D01*
X141868026Y-100066974D02*
X146313026Y-100066974D01*
X132978026Y-100066974D02*
X137423026Y-100066974D01*
X137423026Y-100066974D02*
X141868026Y-100066974D01*
X128533026Y-100066974D02*
X132978026Y-100066974D01*
X124088026Y-100066974D02*
X128533026Y-100066974D01*
X119380000Y-93980000D02*
X121021974Y-95621974D01*
X121021974Y-95621974D02*
X124088026Y-95621974D01*
X171186974Y-97418026D02*
X173345974Y-97418026D01*
X175142026Y-95621974D02*
X177428026Y-95621974D01*
X173345974Y-97418026D02*
X175142026Y-95621974D01*
X162296974Y-97418026D02*
X164455974Y-97418026D01*
X166252026Y-95621974D02*
X168538026Y-95621974D01*
X164455974Y-97418026D02*
X166252026Y-95621974D01*
X177428026Y-95621974D02*
X178280922Y-95621974D01*
X178280922Y-95621974D02*
X180076974Y-97418026D01*
X168538026Y-95621974D02*
X169390922Y-95621974D01*
X169390922Y-95621974D02*
X171186974Y-97418026D01*
X159648026Y-95621974D02*
X160500922Y-95621974D01*
X160500922Y-95621974D02*
X162296974Y-97418026D01*
X155203026Y-95621974D02*
X159648026Y-95621974D01*
X150758026Y-95621974D02*
X155203026Y-95621974D01*
X146313026Y-95621974D02*
X150758026Y-95621974D01*
X141868026Y-95621974D02*
X146313026Y-95621974D01*
X137423026Y-95621974D02*
X141868026Y-95621974D01*
X132978026Y-95621974D02*
X137423026Y-95621974D01*
X124088026Y-95621974D02*
X128533026Y-95621974D01*
X128533026Y-95621974D02*
X132978026Y-95621974D01*
X119380000Y-90805000D02*
X119751974Y-91176974D01*
X119751974Y-91176974D02*
X124088026Y-91176974D01*
X171186974Y-92973026D02*
X173472974Y-92973026D01*
X175269026Y-91176974D02*
X177428026Y-91176974D01*
X173472974Y-92973026D02*
X175269026Y-91176974D01*
X162296974Y-92973026D02*
X164582974Y-92973026D01*
X166379026Y-91176974D02*
X168538026Y-91176974D01*
X164582974Y-92973026D02*
X166379026Y-91176974D01*
X177428026Y-91176974D02*
X178280922Y-91176974D01*
X178280922Y-91176974D02*
X180076974Y-92973026D01*
X168538026Y-91176974D02*
X169390922Y-91176974D01*
X169390922Y-91176974D02*
X171186974Y-92973026D01*
X159648026Y-91176974D02*
X160500922Y-91176974D01*
X160500922Y-91176974D02*
X162296974Y-92973026D01*
X155203026Y-91176974D02*
X159648026Y-91176974D01*
X150758026Y-91176974D02*
X155203026Y-91176974D01*
X146313026Y-91176974D02*
X150758026Y-91176974D01*
X141868026Y-91176974D02*
X146313026Y-91176974D01*
X132978026Y-91176974D02*
X137423026Y-91176974D01*
X137423026Y-91176974D02*
X141868026Y-91176974D01*
X128533026Y-91176974D02*
X132978026Y-91176974D01*
X124088026Y-91176974D02*
X128533026Y-91176974D01*
X157851974Y-115198026D02*
X159648026Y-115198026D01*
X162296974Y-117846974D02*
X164093026Y-117846974D01*
X159648026Y-115198026D02*
X162296974Y-117846974D01*
X119380000Y-116205000D02*
X119761000Y-116586000D01*
X119761000Y-116586000D02*
X123190000Y-116586000D01*
X123190000Y-116586000D02*
X123444000Y-116332000D01*
X123444000Y-116332000D02*
X125222000Y-116332000D01*
X125222000Y-116332000D02*
X125476000Y-116586000D01*
X125476000Y-116586000D02*
X127508000Y-116586000D01*
X127508000Y-116586000D02*
X127762000Y-116332000D01*
X127762000Y-116332000D02*
X130302000Y-116332000D01*
X130302000Y-116332000D02*
X130556000Y-116586000D01*
X130556000Y-116586000D02*
X132080000Y-116586000D01*
X132080000Y-116586000D02*
X132334000Y-116332000D01*
X132334000Y-116332000D02*
X134112000Y-116332000D01*
X134112000Y-116332000D02*
X134366000Y-116586000D01*
X134366000Y-116586000D02*
X136398000Y-116586000D01*
X136398000Y-116586000D02*
X136652000Y-116332000D01*
X136652000Y-116332000D02*
X138684000Y-116332000D01*
X138684000Y-116332000D02*
X138938000Y-116586000D01*
X138938000Y-116586000D02*
X140970000Y-116586000D01*
X140970000Y-116586000D02*
X141224000Y-116332000D01*
X141224000Y-116332000D02*
X143002000Y-116332000D01*
X143002000Y-116332000D02*
X143256000Y-116586000D01*
X143256000Y-116586000D02*
X145288000Y-116586000D01*
X145288000Y-116586000D02*
X145542000Y-116332000D01*
X145542000Y-116332000D02*
X147574000Y-116332000D01*
X147574000Y-116332000D02*
X147828000Y-116586000D01*
X147828000Y-116586000D02*
X149860000Y-116586000D01*
X149860000Y-116586000D02*
X150114000Y-116332000D01*
X150114000Y-116332000D02*
X151843028Y-116332000D01*
X151843028Y-116332000D02*
X152097028Y-116586000D01*
X152097028Y-116586000D02*
X154178000Y-116586000D01*
X154178000Y-116586000D02*
X155565974Y-115198026D01*
X155565974Y-115198026D02*
X157851974Y-115198026D01*
X166741974Y-119643026D02*
X168665026Y-119643026D01*
X171313974Y-122291974D02*
X172983026Y-122291974D01*
X168665026Y-119643026D02*
X171313974Y-122291974D01*
X135890000Y-121158000D02*
X136398000Y-121158000D01*
X122936000Y-121158000D02*
X123190000Y-120904000D01*
X123190000Y-120904000D02*
X125300028Y-120904000D01*
X125300028Y-120904000D02*
X125554028Y-121158000D01*
X125554028Y-121158000D02*
X127508000Y-121158000D01*
X127508000Y-121158000D02*
X127762000Y-120904000D01*
X127762000Y-120904000D02*
X129794000Y-120904000D01*
X129794000Y-120904000D02*
X130048000Y-121158000D01*
X130048000Y-121158000D02*
X131826000Y-121158000D01*
X131826000Y-121158000D02*
X132080000Y-120904000D01*
X132080000Y-120904000D02*
X134366000Y-120904000D01*
X134366000Y-120904000D02*
X134620000Y-121158000D01*
X134620000Y-121158000D02*
X135890000Y-121158000D01*
X119380000Y-119380000D02*
X121158000Y-121158000D01*
X121158000Y-121158000D02*
X122936000Y-121158000D01*
X165481000Y-120904000D02*
X166741974Y-119643026D01*
X163322000Y-120904000D02*
X165481000Y-120904000D01*
X163068000Y-121158000D02*
X163322000Y-120904000D01*
X161290000Y-121158000D02*
X163068000Y-121158000D01*
X161036000Y-120904000D02*
X161290000Y-121158000D01*
X159004000Y-120904000D02*
X161036000Y-120904000D01*
X158750000Y-121158000D02*
X159004000Y-120904000D01*
X156718000Y-121158000D02*
X158750000Y-121158000D01*
X156464000Y-120904000D02*
X156718000Y-121158000D01*
X154432000Y-120904000D02*
X156464000Y-120904000D01*
X154178000Y-121158000D02*
X154432000Y-120904000D01*
X152400000Y-121158000D02*
X154178000Y-121158000D01*
X152146000Y-120904000D02*
X152400000Y-121158000D01*
X149860000Y-120904000D02*
X152146000Y-120904000D01*
X149606000Y-121158000D02*
X149860000Y-120904000D01*
X148082000Y-121158000D02*
X149606000Y-121158000D01*
X147828000Y-120904000D02*
X148082000Y-121158000D01*
X145542000Y-120904000D02*
X147828000Y-120904000D01*
X145288000Y-121158000D02*
X145542000Y-120904000D01*
X143510000Y-121158000D02*
X145288000Y-121158000D01*
X143256000Y-120904000D02*
X143510000Y-121158000D01*
X140970000Y-120904000D02*
X143256000Y-120904000D01*
X140716000Y-121158000D02*
X140970000Y-120904000D01*
X138938000Y-121158000D02*
X140716000Y-121158000D01*
X138684000Y-120904000D02*
X138938000Y-121158000D01*
X136652000Y-120904000D02*
X138684000Y-120904000D01*
X136398000Y-121158000D02*
X136652000Y-120904000D01*
X175631974Y-124088026D02*
X177682026Y-124088026D01*
X181873026Y-124196974D02*
X181873026Y-122291974D01*
X180594000Y-125476000D02*
X181873026Y-124196974D01*
X179070000Y-125476000D02*
X180594000Y-125476000D01*
X177682026Y-124088026D02*
X179070000Y-125476000D01*
X119380000Y-122555000D02*
X119380000Y-123190000D01*
X119380000Y-123190000D02*
X121666000Y-125476000D01*
X121666000Y-125476000D02*
X174244000Y-125476000D01*
X174244000Y-125476000D02*
X175631974Y-124088026D01*
X166370000Y-129540000D02*
X163830000Y-127000000D01*
X140850620Y-128643380D02*
X140850620Y-131485640D01*
X142494000Y-127000000D02*
X140850620Y-128643380D01*
X163830000Y-127000000D02*
X142494000Y-127000000D01*
X168910000Y-129540000D02*
X165862000Y-126492000D01*
X138430000Y-134063740D02*
X140850620Y-136484360D01*
X138430000Y-128270000D02*
X138430000Y-134063740D01*
X140208000Y-126492000D02*
X138430000Y-128270000D01*
X165862000Y-126492000D02*
X140208000Y-126492000D01*
X173990000Y-81280000D02*
X169926000Y-85344000D01*
X111760000Y-122555000D02*
X117348000Y-116967000D01*
X119634000Y-85344000D02*
X169926000Y-85344000D01*
X117856000Y-87122000D02*
X119634000Y-85344000D01*
X117856000Y-110490000D02*
X117856000Y-87122000D01*
X117348000Y-110998000D02*
X117856000Y-110490000D01*
X117348000Y-116967000D02*
X117348000Y-110998000D01*
X171450000Y-81280000D02*
X167894000Y-84836000D01*
X117348000Y-86868000D02*
X119380000Y-84836000D01*
X116840000Y-114300000D02*
X116840000Y-110801998D01*
X116840000Y-110801998D02*
X117348000Y-110293998D01*
X117348000Y-110293998D02*
X117348000Y-86868000D01*
X111760000Y-119380000D02*
X116840000Y-114300000D01*
X119380000Y-84836000D02*
X167894000Y-84836000D01*
X168910000Y-81280000D02*
X165862000Y-84328000D01*
X116840000Y-86614000D02*
X119126000Y-84328000D01*
X116332000Y-111633000D02*
X116332000Y-110547998D01*
X116332000Y-110547998D02*
X116840000Y-110039998D01*
X116840000Y-110039998D02*
X116840000Y-86614000D01*
X111760000Y-116205000D02*
X116332000Y-111633000D01*
X119126000Y-84328000D02*
X165862000Y-84328000D01*
X166370000Y-81280000D02*
X163830000Y-83820000D01*
X116332000Y-86360000D02*
X118872000Y-83820000D01*
X116332000Y-108458000D02*
X116332000Y-86360000D01*
X111760000Y-113030000D02*
X116332000Y-108458000D01*
X118872000Y-83820000D02*
X163830000Y-83820000D01*
X163830000Y-81280000D02*
X161798000Y-83312000D01*
X115824000Y-86106000D02*
X118618000Y-83312000D01*
X115824000Y-105791000D02*
X115824000Y-86106000D01*
X111760000Y-109855000D02*
X115824000Y-105791000D01*
X118618000Y-83312000D02*
X161798000Y-83312000D01*
X161290000Y-81280000D02*
X159766000Y-82804000D01*
X115316000Y-85852000D02*
X118364000Y-82804000D01*
X115316000Y-103124000D02*
X115316000Y-85852000D01*
X111760000Y-106680000D02*
X115316000Y-103124000D01*
X118364000Y-82804000D02*
X159766000Y-82804000D01*
G36*
X117955264Y-126012105D02*
X118171672Y-126535854D01*
X118572038Y-126936919D01*
X119095408Y-127154242D01*
X119662105Y-127154736D01*
X120185854Y-126938328D01*
X120586919Y-126537962D01*
X120804242Y-126014592D01*
X120804381Y-125855000D01*
X121267182Y-125855000D01*
X121277091Y-125864909D01*
X121455524Y-125984134D01*
X121666000Y-126026000D01*
X124976222Y-126026000D01*
X120107222Y-130895000D01*
X120059596Y-130895000D01*
X119953760Y-130638857D01*
X119553251Y-130237649D01*
X119029693Y-130020248D01*
X118462794Y-130019754D01*
X117938857Y-130236240D01*
X117537649Y-130636749D01*
X117320248Y-131160307D01*
X117319754Y-131727206D01*
X117536240Y-132251143D01*
X117936749Y-132652351D01*
X118460307Y-132869752D01*
X119027206Y-132870246D01*
X119551143Y-132653760D01*
X119785040Y-132420271D01*
X119785040Y-133670040D01*
X119826906Y-133880516D01*
X119946131Y-134058949D01*
X119966531Y-134079349D01*
X119860248Y-134335307D01*
X119859754Y-134902206D01*
X120076240Y-135426143D01*
X120476749Y-135827351D01*
X121000307Y-136044752D01*
X121567206Y-136045246D01*
X122091143Y-135828760D01*
X122443996Y-135476521D01*
X129024251Y-135476521D01*
X129681305Y-137066715D01*
X130896885Y-138284419D01*
X132302993Y-138868286D01*
X132279026Y-138878213D01*
X132064171Y-139145402D01*
X133350000Y-140431231D01*
X134635829Y-139145402D01*
X134420974Y-138878213D01*
X134392142Y-138869052D01*
X135796715Y-138288695D01*
X137014419Y-137073115D01*
X137674248Y-135484070D01*
X137675749Y-133763479D01*
X137018695Y-132173285D01*
X135803115Y-130955581D01*
X134397007Y-130371714D01*
X134420974Y-130361787D01*
X134635829Y-130094598D01*
X133350000Y-128808769D01*
X132064171Y-130094598D01*
X132279026Y-130361787D01*
X132307858Y-130370948D01*
X130903285Y-130951305D01*
X129685581Y-132166885D01*
X129025752Y-133755930D01*
X129024251Y-135476521D01*
X122443996Y-135476521D01*
X122492351Y-135428251D01*
X122709752Y-134904693D01*
X122710246Y-134337794D01*
X122493760Y-133813857D01*
X122093251Y-133412649D01*
X121569693Y-133195248D01*
X121002794Y-133194754D01*
X120885040Y-133243409D01*
X120885040Y-132120640D01*
X124897363Y-132120640D01*
X124986848Y-132570511D01*
X125241679Y-132951894D01*
X125623062Y-133206725D01*
X126072933Y-133296210D01*
X126626587Y-133296210D01*
X127076458Y-133206725D01*
X127457841Y-132951894D01*
X127712672Y-132570511D01*
X127802157Y-132120640D01*
X127712672Y-131670769D01*
X127457841Y-131289386D01*
X127076458Y-131034555D01*
X126626587Y-130945070D01*
X126072933Y-130945070D01*
X125623062Y-131034555D01*
X125241679Y-131289386D01*
X124986848Y-131670769D01*
X124897363Y-132120640D01*
X120885040Y-132120640D01*
X120885040Y-131672818D01*
X124384305Y-128173553D01*
X131146049Y-128173553D01*
X131219557Y-129035717D01*
X131408073Y-129490834D01*
X131675262Y-129705689D01*
X132961091Y-128419860D01*
X133738909Y-128419860D01*
X135024738Y-129705689D01*
X135291927Y-129490834D01*
X135553951Y-128666167D01*
X135480443Y-127804003D01*
X135291927Y-127348886D01*
X135024738Y-127134031D01*
X133738909Y-128419860D01*
X132961091Y-128419860D01*
X131675262Y-127134031D01*
X131408073Y-127348886D01*
X131146049Y-128173553D01*
X124384305Y-128173553D01*
X126023858Y-126534000D01*
X132233941Y-126534000D01*
X132064171Y-126745122D01*
X133350000Y-128030951D01*
X134635829Y-126745122D01*
X134466059Y-126534000D01*
X139388182Y-126534000D01*
X138041091Y-127881091D01*
X137921866Y-128059524D01*
X137880000Y-128270000D01*
X137880000Y-134063740D01*
X137921866Y-134274216D01*
X138041091Y-134452649D01*
X139822872Y-136234429D01*
X139742539Y-136288106D01*
X139487708Y-136669489D01*
X139398223Y-137119360D01*
X139487708Y-137569231D01*
X139742539Y-137950614D01*
X140123922Y-138205445D01*
X140573793Y-138294930D01*
X141127447Y-138294930D01*
X141577318Y-138205445D01*
X141958701Y-137950614D01*
X142213532Y-137569231D01*
X142303017Y-137119360D01*
X142213532Y-136669489D01*
X141958701Y-136288106D01*
X141577318Y-136033275D01*
X141127447Y-135943790D01*
X141087867Y-135943790D01*
X140939647Y-135795570D01*
X141125622Y-135795570D01*
X141125622Y-135686269D01*
X141308721Y-135774003D01*
X141734416Y-135606110D01*
X142063457Y-135288090D01*
X142185401Y-135070411D01*
X142132894Y-134895000D01*
X141125620Y-134895000D01*
X141125620Y-134915000D01*
X140575620Y-134915000D01*
X140575620Y-134895000D01*
X140555620Y-134895000D01*
X140555620Y-134345000D01*
X140575620Y-134345000D01*
X140575620Y-133553732D01*
X141125620Y-133553732D01*
X141125620Y-134345000D01*
X142132894Y-134345000D01*
X142185401Y-134169589D01*
X142063457Y-133951910D01*
X141734416Y-133633890D01*
X141308721Y-133465997D01*
X141125620Y-133553732D01*
X140575620Y-133553732D01*
X140392519Y-133465997D01*
X139966824Y-133633890D01*
X139637783Y-133951910D01*
X139515839Y-134169589D01*
X139568345Y-134344998D01*
X139489076Y-134344998D01*
X138980000Y-133835922D01*
X138980000Y-128497818D01*
X140435818Y-127042000D01*
X141674182Y-127042000D01*
X140461711Y-128254471D01*
X140342486Y-128432904D01*
X140300620Y-128643380D01*
X140300620Y-130999408D01*
X140123922Y-131034555D01*
X139742539Y-131289386D01*
X139487708Y-131670769D01*
X139398223Y-132120640D01*
X139487708Y-132570511D01*
X139742539Y-132951894D01*
X140123922Y-133206725D01*
X140573793Y-133296210D01*
X141127447Y-133296210D01*
X141577318Y-133206725D01*
X141958701Y-132951894D01*
X142213532Y-132570511D01*
X142303017Y-132120640D01*
X142213532Y-131670769D01*
X141958701Y-131289386D01*
X141577318Y-131034555D01*
X141400620Y-130999408D01*
X141400620Y-129172307D01*
X142323000Y-129172307D01*
X142323000Y-129907693D01*
X142413355Y-130361938D01*
X142670664Y-130747029D01*
X143055755Y-131004338D01*
X143510000Y-131094693D01*
X143964245Y-131004338D01*
X144349336Y-130747029D01*
X144606645Y-130361938D01*
X144697000Y-129907693D01*
X144697000Y-129172307D01*
X144863000Y-129172307D01*
X144863000Y-129907693D01*
X144953355Y-130361938D01*
X145210664Y-130747029D01*
X145595755Y-131004338D01*
X146050000Y-131094693D01*
X146504245Y-131004338D01*
X146889336Y-130747029D01*
X147146645Y-130361938D01*
X147237000Y-129907693D01*
X147237000Y-129172307D01*
X147403000Y-129172307D01*
X147403000Y-129907693D01*
X147493355Y-130361938D01*
X147750664Y-130747029D01*
X148135755Y-131004338D01*
X148590000Y-131094693D01*
X149044245Y-131004338D01*
X149429336Y-130747029D01*
X149686645Y-130361938D01*
X149777000Y-129907693D01*
X149777000Y-129172307D01*
X149943000Y-129172307D01*
X149943000Y-129907693D01*
X150033355Y-130361938D01*
X150290664Y-130747029D01*
X150675755Y-131004338D01*
X151130000Y-131094693D01*
X151584245Y-131004338D01*
X151969336Y-130747029D01*
X152226645Y-130361938D01*
X152317000Y-129907693D01*
X152317000Y-129172307D01*
X152483000Y-129172307D01*
X152483000Y-129907693D01*
X152573355Y-130361938D01*
X152830664Y-130747029D01*
X153215755Y-131004338D01*
X153670000Y-131094693D01*
X154124245Y-131004338D01*
X154509336Y-130747029D01*
X154766645Y-130361938D01*
X154838122Y-130002595D01*
X155020627Y-130002595D01*
X155158912Y-130448250D01*
X155457215Y-130807063D01*
X155757750Y-130975289D01*
X155935000Y-130922997D01*
X155935000Y-129815000D01*
X156485000Y-129815000D01*
X156485000Y-130922997D01*
X156662250Y-130975289D01*
X156962785Y-130807063D01*
X157261088Y-130448250D01*
X157399373Y-130002595D01*
X157560627Y-130002595D01*
X157698912Y-130448250D01*
X157997215Y-130807063D01*
X158297750Y-130975289D01*
X158475000Y-130922997D01*
X158475000Y-129815000D01*
X159025000Y-129815000D01*
X159025000Y-130922997D01*
X159202250Y-130975289D01*
X159502785Y-130807063D01*
X159801088Y-130448250D01*
X159939373Y-130002595D01*
X159837999Y-129815000D01*
X159025000Y-129815000D01*
X158475000Y-129815000D01*
X157662001Y-129815000D01*
X157560627Y-130002595D01*
X157399373Y-130002595D01*
X157297999Y-129815000D01*
X156485000Y-129815000D01*
X155935000Y-129815000D01*
X155122001Y-129815000D01*
X155020627Y-130002595D01*
X154838122Y-130002595D01*
X154857000Y-129907693D01*
X154857000Y-129172307D01*
X154838123Y-129077405D01*
X155020627Y-129077405D01*
X155122001Y-129265000D01*
X155935000Y-129265000D01*
X155935000Y-128157003D01*
X156485000Y-128157003D01*
X156485000Y-129265000D01*
X157297999Y-129265000D01*
X157399373Y-129077405D01*
X157560627Y-129077405D01*
X157662001Y-129265000D01*
X158475000Y-129265000D01*
X158475000Y-128157003D01*
X159025000Y-128157003D01*
X159025000Y-129265000D01*
X159837999Y-129265000D01*
X159888089Y-129172307D01*
X160103000Y-129172307D01*
X160103000Y-129907693D01*
X160193355Y-130361938D01*
X160450664Y-130747029D01*
X160835755Y-131004338D01*
X161290000Y-131094693D01*
X161744245Y-131004338D01*
X162129336Y-130747029D01*
X162386645Y-130361938D01*
X162477000Y-129907693D01*
X162477000Y-129172307D01*
X162386645Y-128718062D01*
X162129336Y-128332971D01*
X161744245Y-128075662D01*
X161290000Y-127985307D01*
X160835755Y-128075662D01*
X160450664Y-128332971D01*
X160193355Y-128718062D01*
X160103000Y-129172307D01*
X159888089Y-129172307D01*
X159939373Y-129077405D01*
X159801088Y-128631750D01*
X159502785Y-128272937D01*
X159202250Y-128104711D01*
X159025000Y-128157003D01*
X158475000Y-128157003D01*
X158297750Y-128104711D01*
X157997215Y-128272937D01*
X157698912Y-128631750D01*
X157560627Y-129077405D01*
X157399373Y-129077405D01*
X157261088Y-128631750D01*
X156962785Y-128272937D01*
X156662250Y-128104711D01*
X156485000Y-128157003D01*
X155935000Y-128157003D01*
X155757750Y-128104711D01*
X155457215Y-128272937D01*
X155158912Y-128631750D01*
X155020627Y-129077405D01*
X154838123Y-129077405D01*
X154766645Y-128718062D01*
X154509336Y-128332971D01*
X154124245Y-128075662D01*
X153670000Y-127985307D01*
X153215755Y-128075662D01*
X152830664Y-128332971D01*
X152573355Y-128718062D01*
X152483000Y-129172307D01*
X152317000Y-129172307D01*
X152226645Y-128718062D01*
X151969336Y-128332971D01*
X151584245Y-128075662D01*
X151130000Y-127985307D01*
X150675755Y-128075662D01*
X150290664Y-128332971D01*
X150033355Y-128718062D01*
X149943000Y-129172307D01*
X149777000Y-129172307D01*
X149686645Y-128718062D01*
X149429336Y-128332971D01*
X149044245Y-128075662D01*
X148590000Y-127985307D01*
X148135755Y-128075662D01*
X147750664Y-128332971D01*
X147493355Y-128718062D01*
X147403000Y-129172307D01*
X147237000Y-129172307D01*
X147146645Y-128718062D01*
X146889336Y-128332971D01*
X146504245Y-128075662D01*
X146050000Y-127985307D01*
X145595755Y-128075662D01*
X145210664Y-128332971D01*
X144953355Y-128718062D01*
X144863000Y-129172307D01*
X144697000Y-129172307D01*
X144606645Y-128718062D01*
X144349336Y-128332971D01*
X143964245Y-128075662D01*
X143510000Y-127985307D01*
X143055755Y-128075662D01*
X142670664Y-128332971D01*
X142413355Y-128718062D01*
X142323000Y-129172307D01*
X141400620Y-129172307D01*
X141400620Y-128871198D01*
X142721818Y-127550000D01*
X163602182Y-127550000D01*
X165189884Y-129137701D01*
X165183000Y-129172307D01*
X165183000Y-129907693D01*
X165273355Y-130361938D01*
X165530664Y-130747029D01*
X165915755Y-131004338D01*
X166370000Y-131094693D01*
X166824245Y-131004338D01*
X167209336Y-130747029D01*
X167466645Y-130361938D01*
X167557000Y-129907693D01*
X167557000Y-129172307D01*
X167505480Y-128913298D01*
X167729883Y-129137701D01*
X167723000Y-129172307D01*
X167723000Y-129907693D01*
X167813355Y-130361938D01*
X168070664Y-130747029D01*
X168455755Y-131004338D01*
X168910000Y-131094693D01*
X169364245Y-131004338D01*
X169749336Y-130747029D01*
X170006645Y-130361938D01*
X170097000Y-129907693D01*
X170097000Y-129172307D01*
X170263000Y-129172307D01*
X170263000Y-129907693D01*
X170353355Y-130361938D01*
X170610664Y-130747029D01*
X170995755Y-131004338D01*
X171450000Y-131094693D01*
X171904245Y-131004338D01*
X172289336Y-130747029D01*
X172546645Y-130361938D01*
X172637000Y-129907693D01*
X172637000Y-129172307D01*
X172803000Y-129172307D01*
X172803000Y-129907693D01*
X172893355Y-130361938D01*
X173150664Y-130747029D01*
X173535755Y-131004338D01*
X173990000Y-131094693D01*
X174444245Y-131004338D01*
X174829336Y-130747029D01*
X175086645Y-130361938D01*
X175177000Y-129907693D01*
X175177000Y-129172307D01*
X175086645Y-128718062D01*
X174829336Y-128332971D01*
X174444245Y-128075662D01*
X173990000Y-127985307D01*
X173535755Y-128075662D01*
X173150664Y-128332971D01*
X172893355Y-128718062D01*
X172803000Y-129172307D01*
X172637000Y-129172307D01*
X172546645Y-128718062D01*
X172289336Y-128332971D01*
X171904245Y-128075662D01*
X171450000Y-127985307D01*
X170995755Y-128075662D01*
X170610664Y-128332971D01*
X170353355Y-128718062D01*
X170263000Y-129172307D01*
X170097000Y-129172307D01*
X170006645Y-128718062D01*
X169749336Y-128332971D01*
X169364245Y-128075662D01*
X168910000Y-127985307D01*
X168455755Y-128075662D01*
X168316516Y-128168698D01*
X166681818Y-126534000D01*
X175286182Y-126534000D01*
X176789010Y-128036827D01*
X176530000Y-127985307D01*
X176075755Y-128075662D01*
X175690664Y-128332971D01*
X175433355Y-128718062D01*
X175343000Y-129172307D01*
X175343000Y-129907693D01*
X175433355Y-130361938D01*
X175690664Y-130747029D01*
X176075755Y-131004338D01*
X176530000Y-131094693D01*
X176984245Y-131004338D01*
X177369336Y-130747029D01*
X177626645Y-130361938D01*
X177717000Y-129907693D01*
X177717000Y-129172307D01*
X177665480Y-128913297D01*
X177889884Y-129137701D01*
X177883000Y-129172307D01*
X177883000Y-129907693D01*
X177973355Y-130361938D01*
X178230664Y-130747029D01*
X178615755Y-131004338D01*
X179070000Y-131094693D01*
X179524245Y-131004338D01*
X179909336Y-130747029D01*
X180166645Y-130361938D01*
X180257000Y-129907693D01*
X180257000Y-129172307D01*
X180166645Y-128718062D01*
X179909336Y-128332971D01*
X179524245Y-128075662D01*
X179070000Y-127985307D01*
X178615755Y-128075662D01*
X178476516Y-128168698D01*
X176162818Y-125855000D01*
X178671183Y-125855000D01*
X178681089Y-125864906D01*
X178681091Y-125864909D01*
X178796466Y-125942000D01*
X178859524Y-125984134D01*
X179070000Y-126026001D01*
X179070005Y-126026000D01*
X180594000Y-126026000D01*
X180804476Y-125984134D01*
X180850000Y-125953716D01*
X180850000Y-131180876D01*
X180794275Y-131264275D01*
X180585851Y-131403539D01*
X180279380Y-131464500D01*
X146050000Y-131464500D01*
X145814458Y-131511352D01*
X145614775Y-131644776D01*
X143074776Y-134184776D01*
X142941352Y-134384458D01*
X142894500Y-134620000D01*
X142894500Y-139445051D01*
X140534776Y-141804776D01*
X139445052Y-142894500D01*
X134101253Y-142894500D01*
X134420974Y-142762067D01*
X134635829Y-142494878D01*
X133350000Y-141209049D01*
X132064171Y-142494878D01*
X132279026Y-142762067D01*
X132695832Y-142894500D01*
X117094948Y-142894500D01*
X114774281Y-140573833D01*
X131146049Y-140573833D01*
X131219557Y-141435997D01*
X131408073Y-141891114D01*
X131675262Y-142105969D01*
X132961091Y-140820140D01*
X133738909Y-140820140D01*
X135024738Y-142105969D01*
X135291927Y-141891114D01*
X135553951Y-141066447D01*
X135480443Y-140204283D01*
X135291927Y-139749166D01*
X135024738Y-139534311D01*
X133738909Y-140820140D01*
X132961091Y-140820140D01*
X131675262Y-139534311D01*
X131408073Y-139749166D01*
X131146049Y-140573833D01*
X114774281Y-140573833D01*
X112520000Y-138319552D01*
X112520000Y-138077206D01*
X117319754Y-138077206D01*
X117536240Y-138601143D01*
X117936749Y-139002351D01*
X118460307Y-139219752D01*
X119027206Y-139220246D01*
X119551143Y-139003760D01*
X119952351Y-138603251D01*
X120169752Y-138079693D01*
X120170196Y-137569771D01*
X125014979Y-137569771D01*
X125136923Y-137787450D01*
X125465964Y-138105470D01*
X125891659Y-138273363D01*
X126074760Y-138185628D01*
X126074760Y-137394360D01*
X126624760Y-137394360D01*
X126624760Y-138185628D01*
X126807861Y-138273363D01*
X127233556Y-138105470D01*
X127562597Y-137787450D01*
X127684541Y-137569771D01*
X127632034Y-137394360D01*
X126624760Y-137394360D01*
X126074760Y-137394360D01*
X125067486Y-137394360D01*
X125014979Y-137569771D01*
X120170196Y-137569771D01*
X120170246Y-137512794D01*
X119953760Y-136988857D01*
X119634410Y-136668949D01*
X125014979Y-136668949D01*
X125067486Y-136844360D01*
X126074760Y-136844360D01*
X126074760Y-136053092D01*
X126624760Y-136053092D01*
X126624760Y-136844360D01*
X127632034Y-136844360D01*
X127684541Y-136668949D01*
X127562597Y-136451270D01*
X127233556Y-136133250D01*
X126807861Y-135965357D01*
X126624760Y-136053092D01*
X126074760Y-136053092D01*
X125891659Y-135965357D01*
X125465964Y-136133250D01*
X125136923Y-136451270D01*
X125014979Y-136668949D01*
X119634410Y-136668949D01*
X119553251Y-136587649D01*
X119029693Y-136370248D01*
X118462794Y-136369754D01*
X117938857Y-136586240D01*
X117537649Y-136986749D01*
X117320248Y-137510307D01*
X117319754Y-138077206D01*
X112520000Y-138077206D01*
X112520000Y-127267818D01*
X114385000Y-129132818D01*
X114385000Y-133350000D01*
X114426866Y-133560476D01*
X114546091Y-133738909D01*
X114886531Y-134079349D01*
X114780248Y-134335307D01*
X114779754Y-134902206D01*
X114996240Y-135426143D01*
X115396749Y-135827351D01*
X115920307Y-136044752D01*
X116487206Y-136045246D01*
X117011143Y-135828760D01*
X117412351Y-135428251D01*
X117629752Y-134904693D01*
X117630246Y-134337794D01*
X117413760Y-133813857D01*
X117013251Y-133412649D01*
X116489693Y-133195248D01*
X115922794Y-133194754D01*
X115664356Y-133301538D01*
X115485000Y-133122182D01*
X115485000Y-128905000D01*
X115443134Y-128694524D01*
X115323909Y-128516091D01*
X113078079Y-126270261D01*
X113184242Y-126014592D01*
X113184381Y-125855000D01*
X117955401Y-125855000D01*
X117955264Y-126012105D01*
X117955264Y-126012105D01*
G37*
X117955264Y-126012105D02*
X118171672Y-126535854D01*
X118572038Y-126936919D01*
X119095408Y-127154242D01*
X119662105Y-127154736D01*
X120185854Y-126938328D01*
X120586919Y-126537962D01*
X120804242Y-126014592D01*
X120804381Y-125855000D01*
X121267182Y-125855000D01*
X121277091Y-125864909D01*
X121455524Y-125984134D01*
X121666000Y-126026000D01*
X124976222Y-126026000D01*
X120107222Y-130895000D01*
X120059596Y-130895000D01*
X119953760Y-130638857D01*
X119553251Y-130237649D01*
X119029693Y-130020248D01*
X118462794Y-130019754D01*
X117938857Y-130236240D01*
X117537649Y-130636749D01*
X117320248Y-131160307D01*
X117319754Y-131727206D01*
X117536240Y-132251143D01*
X117936749Y-132652351D01*
X118460307Y-132869752D01*
X119027206Y-132870246D01*
X119551143Y-132653760D01*
X119785040Y-132420271D01*
X119785040Y-133670040D01*
X119826906Y-133880516D01*
X119946131Y-134058949D01*
X119966531Y-134079349D01*
X119860248Y-134335307D01*
X119859754Y-134902206D01*
X120076240Y-135426143D01*
X120476749Y-135827351D01*
X121000307Y-136044752D01*
X121567206Y-136045246D01*
X122091143Y-135828760D01*
X122443996Y-135476521D01*
X129024251Y-135476521D01*
X129681305Y-137066715D01*
X130896885Y-138284419D01*
X132302993Y-138868286D01*
X132279026Y-138878213D01*
X132064171Y-139145402D01*
X133350000Y-140431231D01*
X134635829Y-139145402D01*
X134420974Y-138878213D01*
X134392142Y-138869052D01*
X135796715Y-138288695D01*
X137014419Y-137073115D01*
X137674248Y-135484070D01*
X137675749Y-133763479D01*
X137018695Y-132173285D01*
X135803115Y-130955581D01*
X134397007Y-130371714D01*
X134420974Y-130361787D01*
X134635829Y-130094598D01*
X133350000Y-128808769D01*
X132064171Y-130094598D01*
X132279026Y-130361787D01*
X132307858Y-130370948D01*
X130903285Y-130951305D01*
X129685581Y-132166885D01*
X129025752Y-133755930D01*
X129024251Y-135476521D01*
X122443996Y-135476521D01*
X122492351Y-135428251D01*
X122709752Y-134904693D01*
X122710246Y-134337794D01*
X122493760Y-133813857D01*
X122093251Y-133412649D01*
X121569693Y-133195248D01*
X121002794Y-133194754D01*
X120885040Y-133243409D01*
X120885040Y-132120640D01*
X124897363Y-132120640D01*
X124986848Y-132570511D01*
X125241679Y-132951894D01*
X125623062Y-133206725D01*
X126072933Y-133296210D01*
X126626587Y-133296210D01*
X127076458Y-133206725D01*
X127457841Y-132951894D01*
X127712672Y-132570511D01*
X127802157Y-132120640D01*
X127712672Y-131670769D01*
X127457841Y-131289386D01*
X127076458Y-131034555D01*
X126626587Y-130945070D01*
X126072933Y-130945070D01*
X125623062Y-131034555D01*
X125241679Y-131289386D01*
X124986848Y-131670769D01*
X124897363Y-132120640D01*
X120885040Y-132120640D01*
X120885040Y-131672818D01*
X124384305Y-128173553D01*
X131146049Y-128173553D01*
X131219557Y-129035717D01*
X131408073Y-129490834D01*
X131675262Y-129705689D01*
X132961091Y-128419860D01*
X133738909Y-128419860D01*
X135024738Y-129705689D01*
X135291927Y-129490834D01*
X135553951Y-128666167D01*
X135480443Y-127804003D01*
X135291927Y-127348886D01*
X135024738Y-127134031D01*
X133738909Y-128419860D01*
X132961091Y-128419860D01*
X131675262Y-127134031D01*
X131408073Y-127348886D01*
X131146049Y-128173553D01*
X124384305Y-128173553D01*
X126023858Y-126534000D01*
X132233941Y-126534000D01*
X132064171Y-126745122D01*
X133350000Y-128030951D01*
X134635829Y-126745122D01*
X134466059Y-126534000D01*
X139388182Y-126534000D01*
X138041091Y-127881091D01*
X137921866Y-128059524D01*
X137880000Y-128270000D01*
X137880000Y-134063740D01*
X137921866Y-134274216D01*
X138041091Y-134452649D01*
X139822872Y-136234429D01*
X139742539Y-136288106D01*
X139487708Y-136669489D01*
X139398223Y-137119360D01*
X139487708Y-137569231D01*
X139742539Y-137950614D01*
X140123922Y-138205445D01*
X140573793Y-138294930D01*
X141127447Y-138294930D01*
X141577318Y-138205445D01*
X141958701Y-137950614D01*
X142213532Y-137569231D01*
X142303017Y-137119360D01*
X142213532Y-136669489D01*
X141958701Y-136288106D01*
X141577318Y-136033275D01*
X141127447Y-135943790D01*
X141087867Y-135943790D01*
X140939647Y-135795570D01*
X141125622Y-135795570D01*
X141125622Y-135686269D01*
X141308721Y-135774003D01*
X141734416Y-135606110D01*
X142063457Y-135288090D01*
X142185401Y-135070411D01*
X142132894Y-134895000D01*
X141125620Y-134895000D01*
X141125620Y-134915000D01*
X140575620Y-134915000D01*
X140575620Y-134895000D01*
X140555620Y-134895000D01*
X140555620Y-134345000D01*
X140575620Y-134345000D01*
X140575620Y-133553732D01*
X141125620Y-133553732D01*
X141125620Y-134345000D01*
X142132894Y-134345000D01*
X142185401Y-134169589D01*
X142063457Y-133951910D01*
X141734416Y-133633890D01*
X141308721Y-133465997D01*
X141125620Y-133553732D01*
X140575620Y-133553732D01*
X140392519Y-133465997D01*
X139966824Y-133633890D01*
X139637783Y-133951910D01*
X139515839Y-134169589D01*
X139568345Y-134344998D01*
X139489076Y-134344998D01*
X138980000Y-133835922D01*
X138980000Y-128497818D01*
X140435818Y-127042000D01*
X141674182Y-127042000D01*
X140461711Y-128254471D01*
X140342486Y-128432904D01*
X140300620Y-128643380D01*
X140300620Y-130999408D01*
X140123922Y-131034555D01*
X139742539Y-131289386D01*
X139487708Y-131670769D01*
X139398223Y-132120640D01*
X139487708Y-132570511D01*
X139742539Y-132951894D01*
X140123922Y-133206725D01*
X140573793Y-133296210D01*
X141127447Y-133296210D01*
X141577318Y-133206725D01*
X141958701Y-132951894D01*
X142213532Y-132570511D01*
X142303017Y-132120640D01*
X142213532Y-131670769D01*
X141958701Y-131289386D01*
X141577318Y-131034555D01*
X141400620Y-130999408D01*
X141400620Y-129172307D01*
X142323000Y-129172307D01*
X142323000Y-129907693D01*
X142413355Y-130361938D01*
X142670664Y-130747029D01*
X143055755Y-131004338D01*
X143510000Y-131094693D01*
X143964245Y-131004338D01*
X144349336Y-130747029D01*
X144606645Y-130361938D01*
X144697000Y-129907693D01*
X144697000Y-129172307D01*
X144863000Y-129172307D01*
X144863000Y-129907693D01*
X144953355Y-130361938D01*
X145210664Y-130747029D01*
X145595755Y-131004338D01*
X146050000Y-131094693D01*
X146504245Y-131004338D01*
X146889336Y-130747029D01*
X147146645Y-130361938D01*
X147237000Y-129907693D01*
X147237000Y-129172307D01*
X147403000Y-129172307D01*
X147403000Y-129907693D01*
X147493355Y-130361938D01*
X147750664Y-130747029D01*
X148135755Y-131004338D01*
X148590000Y-131094693D01*
X149044245Y-131004338D01*
X149429336Y-130747029D01*
X149686645Y-130361938D01*
X149777000Y-129907693D01*
X149777000Y-129172307D01*
X149943000Y-129172307D01*
X149943000Y-129907693D01*
X150033355Y-130361938D01*
X150290664Y-130747029D01*
X150675755Y-131004338D01*
X151130000Y-131094693D01*
X151584245Y-131004338D01*
X151969336Y-130747029D01*
X152226645Y-130361938D01*
X152317000Y-129907693D01*
X152317000Y-129172307D01*
X152483000Y-129172307D01*
X152483000Y-129907693D01*
X152573355Y-130361938D01*
X152830664Y-130747029D01*
X153215755Y-131004338D01*
X153670000Y-131094693D01*
X154124245Y-131004338D01*
X154509336Y-130747029D01*
X154766645Y-130361938D01*
X154838122Y-130002595D01*
X155020627Y-130002595D01*
X155158912Y-130448250D01*
X155457215Y-130807063D01*
X155757750Y-130975289D01*
X155935000Y-130922997D01*
X155935000Y-129815000D01*
X156485000Y-129815000D01*
X156485000Y-130922997D01*
X156662250Y-130975289D01*
X156962785Y-130807063D01*
X157261088Y-130448250D01*
X157399373Y-130002595D01*
X157560627Y-130002595D01*
X157698912Y-130448250D01*
X157997215Y-130807063D01*
X158297750Y-130975289D01*
X158475000Y-130922997D01*
X158475000Y-129815000D01*
X159025000Y-129815000D01*
X159025000Y-130922997D01*
X159202250Y-130975289D01*
X159502785Y-130807063D01*
X159801088Y-130448250D01*
X159939373Y-130002595D01*
X159837999Y-129815000D01*
X159025000Y-129815000D01*
X158475000Y-129815000D01*
X157662001Y-129815000D01*
X157560627Y-130002595D01*
X157399373Y-130002595D01*
X157297999Y-129815000D01*
X156485000Y-129815000D01*
X155935000Y-129815000D01*
X155122001Y-129815000D01*
X155020627Y-130002595D01*
X154838122Y-130002595D01*
X154857000Y-129907693D01*
X154857000Y-129172307D01*
X154838123Y-129077405D01*
X155020627Y-129077405D01*
X155122001Y-129265000D01*
X155935000Y-129265000D01*
X155935000Y-128157003D01*
X156485000Y-128157003D01*
X156485000Y-129265000D01*
X157297999Y-129265000D01*
X157399373Y-129077405D01*
X157560627Y-129077405D01*
X157662001Y-129265000D01*
X158475000Y-129265000D01*
X158475000Y-128157003D01*
X159025000Y-128157003D01*
X159025000Y-129265000D01*
X159837999Y-129265000D01*
X159888089Y-129172307D01*
X160103000Y-129172307D01*
X160103000Y-129907693D01*
X160193355Y-130361938D01*
X160450664Y-130747029D01*
X160835755Y-131004338D01*
X161290000Y-131094693D01*
X161744245Y-131004338D01*
X162129336Y-130747029D01*
X162386645Y-130361938D01*
X162477000Y-129907693D01*
X162477000Y-129172307D01*
X162386645Y-128718062D01*
X162129336Y-128332971D01*
X161744245Y-128075662D01*
X161290000Y-127985307D01*
X160835755Y-128075662D01*
X160450664Y-128332971D01*
X160193355Y-128718062D01*
X160103000Y-129172307D01*
X159888089Y-129172307D01*
X159939373Y-129077405D01*
X159801088Y-128631750D01*
X159502785Y-128272937D01*
X159202250Y-128104711D01*
X159025000Y-128157003D01*
X158475000Y-128157003D01*
X158297750Y-128104711D01*
X157997215Y-128272937D01*
X157698912Y-128631750D01*
X157560627Y-129077405D01*
X157399373Y-129077405D01*
X157261088Y-128631750D01*
X156962785Y-128272937D01*
X156662250Y-128104711D01*
X156485000Y-128157003D01*
X155935000Y-128157003D01*
X155757750Y-128104711D01*
X155457215Y-128272937D01*
X155158912Y-128631750D01*
X155020627Y-129077405D01*
X154838123Y-129077405D01*
X154766645Y-128718062D01*
X154509336Y-128332971D01*
X154124245Y-128075662D01*
X153670000Y-127985307D01*
X153215755Y-128075662D01*
X152830664Y-128332971D01*
X152573355Y-128718062D01*
X152483000Y-129172307D01*
X152317000Y-129172307D01*
X152226645Y-128718062D01*
X151969336Y-128332971D01*
X151584245Y-128075662D01*
X151130000Y-127985307D01*
X150675755Y-128075662D01*
X150290664Y-128332971D01*
X150033355Y-128718062D01*
X149943000Y-129172307D01*
X149777000Y-129172307D01*
X149686645Y-128718062D01*
X149429336Y-128332971D01*
X149044245Y-128075662D01*
X148590000Y-127985307D01*
X148135755Y-128075662D01*
X147750664Y-128332971D01*
X147493355Y-128718062D01*
X147403000Y-129172307D01*
X147237000Y-129172307D01*
X147146645Y-128718062D01*
X146889336Y-128332971D01*
X146504245Y-128075662D01*
X146050000Y-127985307D01*
X145595755Y-128075662D01*
X145210664Y-128332971D01*
X144953355Y-128718062D01*
X144863000Y-129172307D01*
X144697000Y-129172307D01*
X144606645Y-128718062D01*
X144349336Y-128332971D01*
X143964245Y-128075662D01*
X143510000Y-127985307D01*
X143055755Y-128075662D01*
X142670664Y-128332971D01*
X142413355Y-128718062D01*
X142323000Y-129172307D01*
X141400620Y-129172307D01*
X141400620Y-128871198D01*
X142721818Y-127550000D01*
X163602182Y-127550000D01*
X165189884Y-129137701D01*
X165183000Y-129172307D01*
X165183000Y-129907693D01*
X165273355Y-130361938D01*
X165530664Y-130747029D01*
X165915755Y-131004338D01*
X166370000Y-131094693D01*
X166824245Y-131004338D01*
X167209336Y-130747029D01*
X167466645Y-130361938D01*
X167557000Y-129907693D01*
X167557000Y-129172307D01*
X167505480Y-128913298D01*
X167729883Y-129137701D01*
X167723000Y-129172307D01*
X167723000Y-129907693D01*
X167813355Y-130361938D01*
X168070664Y-130747029D01*
X168455755Y-131004338D01*
X168910000Y-131094693D01*
X169364245Y-131004338D01*
X169749336Y-130747029D01*
X170006645Y-130361938D01*
X170097000Y-129907693D01*
X170097000Y-129172307D01*
X170263000Y-129172307D01*
X170263000Y-129907693D01*
X170353355Y-130361938D01*
X170610664Y-130747029D01*
X170995755Y-131004338D01*
X171450000Y-131094693D01*
X171904245Y-131004338D01*
X172289336Y-130747029D01*
X172546645Y-130361938D01*
X172637000Y-129907693D01*
X172637000Y-129172307D01*
X172803000Y-129172307D01*
X172803000Y-129907693D01*
X172893355Y-130361938D01*
X173150664Y-130747029D01*
X173535755Y-131004338D01*
X173990000Y-131094693D01*
X174444245Y-131004338D01*
X174829336Y-130747029D01*
X175086645Y-130361938D01*
X175177000Y-129907693D01*
X175177000Y-129172307D01*
X175086645Y-128718062D01*
X174829336Y-128332971D01*
X174444245Y-128075662D01*
X173990000Y-127985307D01*
X173535755Y-128075662D01*
X173150664Y-128332971D01*
X172893355Y-128718062D01*
X172803000Y-129172307D01*
X172637000Y-129172307D01*
X172546645Y-128718062D01*
X172289336Y-128332971D01*
X171904245Y-128075662D01*
X171450000Y-127985307D01*
X170995755Y-128075662D01*
X170610664Y-128332971D01*
X170353355Y-128718062D01*
X170263000Y-129172307D01*
X170097000Y-129172307D01*
X170006645Y-128718062D01*
X169749336Y-128332971D01*
X169364245Y-128075662D01*
X168910000Y-127985307D01*
X168455755Y-128075662D01*
X168316516Y-128168698D01*
X166681818Y-126534000D01*
X175286182Y-126534000D01*
X176789010Y-128036827D01*
X176530000Y-127985307D01*
X176075755Y-128075662D01*
X175690664Y-128332971D01*
X175433355Y-128718062D01*
X175343000Y-129172307D01*
X175343000Y-129907693D01*
X175433355Y-130361938D01*
X175690664Y-130747029D01*
X176075755Y-131004338D01*
X176530000Y-131094693D01*
X176984245Y-131004338D01*
X177369336Y-130747029D01*
X177626645Y-130361938D01*
X177717000Y-129907693D01*
X177717000Y-129172307D01*
X177665480Y-128913297D01*
X177889884Y-129137701D01*
X177883000Y-129172307D01*
X177883000Y-129907693D01*
X177973355Y-130361938D01*
X178230664Y-130747029D01*
X178615755Y-131004338D01*
X179070000Y-131094693D01*
X179524245Y-131004338D01*
X179909336Y-130747029D01*
X180166645Y-130361938D01*
X180257000Y-129907693D01*
X180257000Y-129172307D01*
X180166645Y-128718062D01*
X179909336Y-128332971D01*
X179524245Y-128075662D01*
X179070000Y-127985307D01*
X178615755Y-128075662D01*
X178476516Y-128168698D01*
X176162818Y-125855000D01*
X178671183Y-125855000D01*
X178681089Y-125864906D01*
X178681091Y-125864909D01*
X178796466Y-125942000D01*
X178859524Y-125984134D01*
X179070000Y-126026001D01*
X179070005Y-126026000D01*
X180594000Y-126026000D01*
X180804476Y-125984134D01*
X180850000Y-125953716D01*
X180850000Y-131180876D01*
X180794275Y-131264275D01*
X180585851Y-131403539D01*
X180279380Y-131464500D01*
X146050000Y-131464500D01*
X145814458Y-131511352D01*
X145614775Y-131644776D01*
X143074776Y-134184776D01*
X142941352Y-134384458D01*
X142894500Y-134620000D01*
X142894500Y-139445051D01*
X140534776Y-141804776D01*
X139445052Y-142894500D01*
X134101253Y-142894500D01*
X134420974Y-142762067D01*
X134635829Y-142494878D01*
X133350000Y-141209049D01*
X132064171Y-142494878D01*
X132279026Y-142762067D01*
X132695832Y-142894500D01*
X117094948Y-142894500D01*
X114774281Y-140573833D01*
X131146049Y-140573833D01*
X131219557Y-141435997D01*
X131408073Y-141891114D01*
X131675262Y-142105969D01*
X132961091Y-140820140D01*
X133738909Y-140820140D01*
X135024738Y-142105969D01*
X135291927Y-141891114D01*
X135553951Y-141066447D01*
X135480443Y-140204283D01*
X135291927Y-139749166D01*
X135024738Y-139534311D01*
X133738909Y-140820140D01*
X132961091Y-140820140D01*
X131675262Y-139534311D01*
X131408073Y-139749166D01*
X131146049Y-140573833D01*
X114774281Y-140573833D01*
X112520000Y-138319552D01*
X112520000Y-138077206D01*
X117319754Y-138077206D01*
X117536240Y-138601143D01*
X117936749Y-139002351D01*
X118460307Y-139219752D01*
X119027206Y-139220246D01*
X119551143Y-139003760D01*
X119952351Y-138603251D01*
X120169752Y-138079693D01*
X120170196Y-137569771D01*
X125014979Y-137569771D01*
X125136923Y-137787450D01*
X125465964Y-138105470D01*
X125891659Y-138273363D01*
X126074760Y-138185628D01*
X126074760Y-137394360D01*
X126624760Y-137394360D01*
X126624760Y-138185628D01*
X126807861Y-138273363D01*
X127233556Y-138105470D01*
X127562597Y-137787450D01*
X127684541Y-137569771D01*
X127632034Y-137394360D01*
X126624760Y-137394360D01*
X126074760Y-137394360D01*
X125067486Y-137394360D01*
X125014979Y-137569771D01*
X120170196Y-137569771D01*
X120170246Y-137512794D01*
X119953760Y-136988857D01*
X119634410Y-136668949D01*
X125014979Y-136668949D01*
X125067486Y-136844360D01*
X126074760Y-136844360D01*
X126074760Y-136053092D01*
X126624760Y-136053092D01*
X126624760Y-136844360D01*
X127632034Y-136844360D01*
X127684541Y-136668949D01*
X127562597Y-136451270D01*
X127233556Y-136133250D01*
X126807861Y-135965357D01*
X126624760Y-136053092D01*
X126074760Y-136053092D01*
X125891659Y-135965357D01*
X125465964Y-136133250D01*
X125136923Y-136451270D01*
X125014979Y-136668949D01*
X119634410Y-136668949D01*
X119553251Y-136587649D01*
X119029693Y-136370248D01*
X118462794Y-136369754D01*
X117938857Y-136586240D01*
X117537649Y-136986749D01*
X117320248Y-137510307D01*
X117319754Y-138077206D01*
X112520000Y-138077206D01*
X112520000Y-127267818D01*
X114385000Y-129132818D01*
X114385000Y-133350000D01*
X114426866Y-133560476D01*
X114546091Y-133738909D01*
X114886531Y-134079349D01*
X114780248Y-134335307D01*
X114779754Y-134902206D01*
X114996240Y-135426143D01*
X115396749Y-135827351D01*
X115920307Y-136044752D01*
X116487206Y-136045246D01*
X117011143Y-135828760D01*
X117412351Y-135428251D01*
X117629752Y-134904693D01*
X117630246Y-134337794D01*
X117413760Y-133813857D01*
X117013251Y-133412649D01*
X116489693Y-133195248D01*
X115922794Y-133194754D01*
X115664356Y-133301538D01*
X115485000Y-133122182D01*
X115485000Y-128905000D01*
X115443134Y-128694524D01*
X115323909Y-128516091D01*
X113078079Y-126270261D01*
X113184242Y-126014592D01*
X113184381Y-125855000D01*
X117955401Y-125855000D01*
X117955264Y-126012105D01*
M02*
